<svg xmlns="http://www.w3.org/2000/svg" viewBox="0 0 500 500"><path d="M427.92 231.16c1.88-25-3.93-51-11.72-74.3-11.56-34.53-34-69.94-71.79-78.11-21.79-4.71-44 .34-62.65 12.15-18 11.35-32 26-54.07 28.86-22.34 2.88-45.27 1.72-67.73 1.72-57.75 0-104.61 60.67-92.89 123.86s67 107 113.81 107c42.12 0 76.76-25.27 116.76-32.05 19.84-3.36 39.76.62 59.38-4.42 22.82-5.87 44.28-19.87 56.92-40.08 8.61-13.79 12.8-29 13.98-44.63z" fill="#b4dbb6"/><path d="M427.92 231.16c1.88-25-3.93-51-11.72-74.3-11.56-34.53-34-69.94-71.79-78.11-21.79-4.71-44 .34-62.65 12.15-18 11.35-32 26-54.07 28.86-22.34 2.88-45.27 1.72-67.73 1.72-57.75 0-104.61 60.67-92.89 123.86s67 107 113.81 107c42.12 0 76.76-25.27 116.76-32.05 19.84-3.36 39.76.62 59.38-4.42 22.82-5.87 44.28-19.87 56.92-40.08 8.61-13.79 12.8-29 13.98-44.63z" fill="#fff" opacity=".7"/><path d="M449 370.22c0 5.49-81.93 9.94-183 9.94s-183-4.45-183-9.94 81.93-10 183-10 183 4.51 183 10z" fill="#b4dbb6"/><path d="M449 370.22c0 5.49-81.93 9.94-183 9.94s-183-4.45-183-9.94 81.93-10 183-10 183 4.51 183 10z" fill="#fff" opacity=".5"/><path d="M425.72 191.15s0-4.75-6.65-11.41-10.93-10.45-10.93-10.45-3.33 10.93 2.85 17.58a117.35 117.35 0 0 0 14.73 12.83z" fill="#b4dbb6"/><path d="M416.07 220.82s0-4.75-6.66-11.4S398.49 199 398.49 199s-3.33 10.93 2.85 17.58a116.58 116.58 0 0 0 14.73 12.83z" fill="#b4dbb6"/><path d="M425.3 199.24s.5-4.73 7.82-10.64 12-9.24 12-9.24 2.15 11.22-4.69 17.18a116.42 116.42 0 0 1-16 11.2z" fill="#b4dbb6"/><path d="M413.64 234.28s1-4.64 8.89-9.75 12.88-7.94 12.88-7.94 1 11.39-6.47 16.6a116.82 116.82 0 0 1-17.09 9.45z" fill="#b4dbb6"/><path d="M415.83 272.49s0-4.75 6.65-11.41 10.93-10.45 10.93-10.45 3.33 10.93-2.85 17.58A117.35 117.35 0 0 1 415.83 281z" fill="#b4dbb6"/><path d="M415.72 281.81s.68-4.7-5-12.23-9.33-11.9-9.33-11.9-4.85 10.34.32 17.81a117.31 117.31 0 0 0 12.75 14.79z" fill="#b4dbb6"/><path d="M409.16 309.45s0-4.75 6.65-11.4 10.93-10.46 10.93-10.46 3.33 10.93-2.85 17.58A116.41 116.41 0 0 1 409.16 318z" fill="#b4dbb6"/><path d="M413.6 334.51s-1.2-4.6 3.55-12.72 7.92-12.88 7.92-12.88 6 9.73 1.7 17.73a116.73 116.73 0 0 1-11 16.14z" fill="#b4dbb6"/><path d="M420.12 357.68a.5.5 0 0 1-.48-.34c-.09-.29-9.23-28.64-11-39.08-1-6.18.63-11.81 2.55-18.34a104.75 104.75 0 0 0 3.85-16.84c1-7.81-.36-15.58-1.67-23.09s-2.56-14.56-1.22-20.79c1.26-5.89 3.37-10.86 5.61-16.12 2.38-5.61 4.85-11.42 6.22-18.49a130.73 130.73 0 0 0 1.81-14.7.53.53 0 0 1 .54-.46.5.5 0 0 1 .46.54 135.25 135.25 0 0 1-1.79 14.81c-1.39 7.17-3.88 13-6.28 18.69-2.22 5.22-4.31 10.15-5.55 15.94-1.3 6-.07 13 1.22 20.41 1.33 7.59 2.7 15.43 1.68 23.38a105.28 105.28 0 0 1-3.88 17c-1.89 6.41-3.52 11.95-2.52 17.9 1.72 10.36 10.84 38.64 10.93 38.93a.5.5 0 0 1-.32.63z" fill="#263238"/><path d="M425.24 202.9a.51.51 0 0 1-.4-.2.5.5 0 0 1 .09-.7l7.17-5.5a.5.5 0 0 1 .61.79l-7.17 5.5a.5.5 0 0 1-.3.11z" fill="#263238"/><path d="M425.57 196.56a.5.5 0 0 1-.44-.25l-3-5.34a.5.5 0 0 1 .87-.49l3 5.34a.5.5 0 0 1-.19.68.5.5 0 0 1-.24.06z" fill="#263238"/><path d="M413.07 239.24a.5.5 0 0 1-.3-.9c.06-.05 6.07-4.56 12.17-9a.5.5 0 1 1 .59.81c-6.09 4.45-12.1 9-12.16 9a.57.57 0 0 1-.3.09z" fill="#263238"/><path d="M416.07 229.87a.5.5 0 0 1-.45-.27c-.05-.1-5-9.83-10.6-16.21a.5.5 0 0 1 .75-.65c5.65 6.47 10.69 16.3 10.74 16.4a.5.5 0 0 1-.22.68.59.59 0 0 1-.22.05z" fill="#263238"/><path d="M416.07 279.75a.46.46 0 0 1-.23-.06.5.5 0 0 1-.22-.67 75.78 75.78 0 0 1 12.93-17.3.5.5 0 0 1 .71 0 .49.49 0 0 1 0 .7 74.89 74.89 0 0 0-12.74 17 .49.49 0 0 1-.45.33z" fill="#263238"/><path d="M414.9 286.41a.49.49 0 0 1-.46-.3 83.18 83.18 0 0 0-6.44-12.25c-3.42-5.06-4-5.79-4-5.82a.5.5 0 0 1 .1-.7.51.51 0 0 1 .7.1s.54.74 4 5.86a85.18 85.18 0 0 1 6.55 12.42.5.5 0 0 1-.27.66.63.63 0 0 1-.18.03z" fill="#263238"/><path d="M409.16 318.68a.57.57 0 0 1-.18 0 .5.5 0 0 1-.28-.65 79.7 79.7 0 0 1 5.44-11 71.7 71.7 0 0 1 7.06-9.25.5.5 0 0 1 .71 0 .49.49 0 0 1 0 .7 71.3 71.3 0 0 0-6.94 9.09 79.93 79.93 0 0 0-5.36 10.85.51.51 0 0 1-.45.26z" fill="#263238"/><path d="M415.77 343.28a.51.51 0 0 1-.5-.44 20.66 20.66 0 0 1 1.85-10.84c2-3.82 4.14-8.53 5.57-11.64.37-.81.68-1.49.93-2a.5.5 0 1 1 .9.42c-.24.52-.56 1.2-.92 2-1.44 3.13-3.6 7.85-5.59 11.69a19.88 19.88 0 0 0-1.74 10.23.52.52 0 0 1-.44.56z" fill="#263238"/><path d="M382.16 254.62s-.51-3 2.94-7.87 5.71-7.74 5.71-7.74 3.27 6.49.12 11.33a74.38 74.38 0 0 1-7.84 9.64z" fill="#b4dbb6"/><path d="M391.44 272.18s-.52-3 2.93-7.88 5.72-7.74 5.72-7.74 3.27 6.5.12 11.34a74.38 74.38 0 0 1-7.84 9.64z" fill="#b4dbb6"/><path d="M383.3 259.65s-.82-2.91-6.05-5.82-8.51-4.5-8.51-4.5-.14 7.27 4.8 10.27a74.66 74.66 0 0 0 11.25 5.28z" fill="#b4dbb6"/><path d="M394.42 280.36s-1.13-2.81-6.64-5.16-8.93-3.57-8.93-3.57.63 7.24 5.86 9.7a74.42 74.42 0 0 0 11.74 4.08z" fill="#b4dbb6"/><path d="M397.19 304.55s-.51-3-5.41-6.43-8-5.36-8-5.36-.9 7.21 3.69 10.71a74.41 74.41 0 0 0 10.63 6.44z" fill="#b4dbb6"/><path d="M398.27 310.39s-.93-2.88 1.79-8.21 4.56-8.48 4.56-8.48 4.16 6 1.73 11.2a74.43 74.43 0 0 1-6.35 10.66z" fill="#b4dbb6"/><path d="M406.62 334.42s.35-3 5-6.73 7.66-5.81 7.66-5.81 1.31 7.15-3.07 10.91a75 75 0 0 1-10.25 7z" fill="#b4dbb6"/><path d="M405.39 327s-.52-3-5.41-6.43-8-5.37-8-5.37-.9 7.21 3.7 10.71a74.35 74.35 0 0 0 10.63 6.45z" fill="#b4dbb6"/><path d="M405.32 343.2s.26-3-3.6-7.59-6.37-7.21-6.37-7.21-2.7 6.75.86 11.3a74.14 74.14 0 0 0 8.65 8.92z" fill="#b4dbb6"/><path d="M403.7 358.63h-.07a.51.51 0 0 1-.43-.56c0-.19 2.68-18.9 2.64-25.58 0-3.79-1.56-6.91-3.51-10.87a66.75 66.75 0 0 1-4.33-10.27c-1.51-4.9-1.5-10-1.49-14.9 0-4.76 0-9.25-1.44-12.87a54.64 54.64 0 0 0-5.19-9.35 57.41 57.41 0 0 1-6-11.08 84.9 84.9 0 0 1-2.76-9.11.49.49 0 0 1 .36-.6.49.49 0 0 1 .61.36 86.05 86.05 0 0 0 2.72 9 56.7 56.7 0 0 0 5.9 10.89 55.7 55.7 0 0 1 5.28 9.52c1.52 3.8 1.52 8.38 1.51 13.24s0 9.84 1.44 14.61a65.85 65.85 0 0 0 4.24 10.11c1.92 3.91 3.58 7.28 3.61 11.31 0 6.74-2.54 24.95-2.65 25.72a.49.49 0 0 1-.44.43z" fill="#263238"/><path d="M383.69 262.12a.53.53 0 0 1-.24-.06l-5.09-2.67a.5.5 0 1 1 .47-.88l5.09 2.67a.5.5 0 0 1-.23.94z" fill="#263238"/><path d="M382.79 258.18a.5.5 0 0 1-.17 0 .5.5 0 0 1-.3-.64l1.3-3.67a.51.51 0 0 1 .64-.31.49.49 0 0 1 .3.64l-1.3 3.67a.48.48 0 0 1-.47.31z" fill="#263238"/><path d="M395.26 283.59a.46.46 0 0 1-.22-.06s-4.25-2.17-8.61-4.32a.5.5 0 0 1-.22-.67.49.49 0 0 1 .67-.22c4.36 2.15 8.61 4.32 8.61 4.32a.5.5 0 0 1-.23.95z" fill="#263238"/><path d="M392.37 278h-.15a.5.5 0 0 1-.33-.63 60.18 60.18 0 0 1 5-11.49.5.5 0 1 1 .85.52 60.75 60.75 0 0 0-4.87 11.27.49.49 0 0 1-.5.33z" fill="#263238"/><path d="M397.78 309.32a.51.51 0 0 1-.4-.2 47.12 47.12 0 0 0-9.8-9.27.5.5 0 0 1-.13-.69.51.51 0 0 1 .7-.13 48 48 0 0 1 10 9.49.51.51 0 0 1-.1.7.57.57 0 0 1-.27.1z" fill="#263238"/><path d="M399.23 313.37h-.11a.5.5 0 0 1-.37-.6 52.35 52.35 0 0 1 2.77-8.54c1.62-3.59 1.87-4.09 1.88-4.11a.5.5 0 0 1 .89.45s-.27.55-1.86 4.08a52.59 52.59 0 0 0-2.71 8.34.5.5 0 0 1-.49.38z" fill="#263238"/><path d="M406.1 338.13a.51.51 0 0 1-.31-.11.5.5 0 0 1-.07-.71 44.86 44.86 0 0 1 5.56-5.77 28 28 0 0 0 3.49-3 .5.5 0 0 1 .71 0 .49.49 0 0 1 0 .7 28.87 28.87 0 0 1-3.62 3.16 43.85 43.85 0 0 0-5.39 5.6.5.5 0 0 1-.37.13z" fill="#263238"/><path d="M406.34 333a.49.49 0 0 1-.43-.24 51.85 51.85 0 0 0-4.52-6.19 44.35 44.35 0 0 0-5.32-4.93.5.5 0 1 1 .61-.79 44.31 44.31 0 0 1 5.45 5.05 50.47 50.47 0 0 1 4.63 6.34.5.5 0 0 1-.16.69.54.54 0 0 1-.26.07z" fill="#263238"/><path d="M404.86 349.12a.5.5 0 0 1-.5-.47 12.42 12.42 0 0 0-2.17-6.13c-1.66-2.2-3.54-4.93-4.78-6.74l-.79-1.14a.5.5 0 1 1 .82-.57l.79 1.15c1.24 1.8 3.11 4.52 4.76 6.7a13.37 13.37 0 0 1 2.37 6.68.49.49 0 0 1-.47.52z" fill="#263238"/><path d="M390.11 354.84h43.51v14.66a3.5 3.5 0 0 1-3.5 3.5h-36.51a3.5 3.5 0 0 1-3.5-3.5v-14.66z" fill="#263238"/><path d="M430.12 373.5h-36.51a4 4 0 0 1-4-4v-14.66a.5.5 0 0 1 .5-.5h43.51a.5.5 0 0 1 .5.5v14.66a4 4 0 0 1-4 4zm-39.51-18.16v14.16a3 3 0 0 0 3 3h36.51a3 3 0 0 0 3-3v-14.16z" fill="#263238"/><path d="M433.24 360.51h-43.13a3.4 3.4 0 0 1-3.4-3.4 3.41 3.41 0 0 1 3.4-3.41h43.13a3.41 3.41 0 0 1 3.41 3.41 3.41 3.41 0 0 1-3.41 3.4z" fill="#263238"/><path d="M433.24 361h-43.13a3.91 3.91 0 0 1 0-7.81h43.13a3.91 3.91 0 1 1 0 7.81zm-43.13-6.81a2.91 2.91 0 0 0 0 5.81h43.13a2.91 2.91 0 1 0 0-5.81z" fill="#263238"/><path d="M423.14 361.17h-31.32a.5.5 0 0 1-.5-.5.5.5 0 0 1 .5-.5h31.32a.5.5 0 0 1 .5.5.5.5 0 0 1-.5.5z" fill="#fff"/><path d="M431.25 361.17h-5.16a.5.5 0 0 1-.5-.5.5.5 0 0 1 .5-.5h5.16a.5.5 0 0 1 .5.5.51.51 0 0 1-.5.5z" fill="#fff"/><g><path d="M360.37 424.46H132.08c-2.39 0-3.67-.91-2.85-2l24.24-33.17c.51-.69 2.42-1.24 4.27-1.24h177c1.86 0 3.77.55 4.27 1.24l24.25 33.17c.74 1.09-.49 2-2.89 2z" fill="#263238"/><path d="M360.37 425H132.08c-1.8 0-3.08-.48-3.5-1.32a1.45 1.45 0 0 1 .2-1.58L153 388.94c.7-.95 2.95-1.47 4.71-1.47h177c1.76 0 4 .52 4.71 1.47l24.25 33.17a1.43 1.43 0 0 1 .2 1.58c-.42.84-1.7 1.31-3.5 1.31zm-202.63-36.43c-1.91 0-3.52.59-3.83 1l-24.24 33.16c-.2.28-.14.4-.11.45.17.34 1 .71 2.52.71h228.29c1.49 0 2.35-.37 2.53-.71 0-.05.08-.17-.12-.45l-24.24-33.16c-.31-.43-1.92-1-3.83-1z" fill="#263238"/><path fill="#fff" d="M248.12 388.71h-10.48l-.3 4.34h10.84l-.06-4.34z"/><path d="M248.18 393.6h-10.83a.58.58 0 0 1-.41-.18.56.56 0 0 1-.14-.41l.29-4.33a.55.55 0 0 1 .55-.51h10.48a.55.55 0 0 1 .55.54l.06 4.33a.51.51 0 0 1-.16.39.52.52 0 0 1-.39.17zm-10.25-1.1h9.7v-3.24h-9.43z" fill="#263238"/><path fill="#fff" d="M222.83 388.71h-10.48l-1.16 4.34h10.84l.8-4.34z"/><path d="M222 393.6h-10.81a.53.53 0 0 1-.43-.22.53.53 0 0 1-.1-.47l1.17-4.34a.53.53 0 0 1 .52-.4h10.48a.54.54 0 0 1 .42.19.53.53 0 0 1 .12.45l-.8 4.34a.56.56 0 0 1-.57.45zm-10.12-1.1h9.67l.6-3.24h-9.41z" fill="#263238"/><path fill="#fff" d="M260.76 388.71h-10.48l.14 4.34h10.84l-.5-4.34z"/><path d="M261.26 393.6h-10.84a.56.56 0 0 1-.55-.53l-.13-4.34a.54.54 0 0 1 .15-.4.55.55 0 0 1 .39-.16h10.48a.55.55 0 0 1 .55.48l.49 4.34a.55.55 0 0 1-.54.61zM251 392.5h9.7l-.38-3.24h-9.42z" fill="#263238"/><path fill="#fff" d="M197.55 388.71h-10.48l-2.03 4.34h10.84l1.67-4.34z"/><path d="M195.88 393.6H185a.54.54 0 0 1-.46-.26.53.53 0 0 1 0-.52l2-4.34a.56.56 0 0 1 .5-.31h10.48a.53.53 0 0 1 .45.23.58.58 0 0 1 .06.51l-1.67 4.34a.55.55 0 0 1-.48.35zm-10-1.1h9.6l1.25-3.24h-9.33z" fill="#263238"/><path fill="#fff" d="M210.19 388.71h-10.48l-1.59 4.34h10.83l1.24-4.34z"/><path d="M209 393.6h-10.89a.54.54 0 0 1-.44-.24.52.52 0 0 1-.07-.5l1.6-4.34a.54.54 0 0 1 .51-.35h10.48a.58.58 0 0 1 .44.21.59.59 0 0 1 .09.48l-1.24 4.34a.55.55 0 0 1-.48.4zm-10-1.1h9.64l.93-3.24h-9.38z" fill="#263238"/><path fill="#fff" d="M171.96 393.05h10.84l2.11-4.34h-10.48l-2.47 4.34z"/><path d="M182.8 393.6H172a.57.57 0 0 1-.47-.27.54.54 0 0 1 0-.55l2.46-4.34a.55.55 0 0 1 .48-.27h10.48a.54.54 0 0 1 .46.25.55.55 0 0 1 0 .53l-2.11 4.34a.54.54 0 0 1-.5.31zm-9.9-1.1h9.56l1.57-3.24h-9.29z" fill="#263238"/><path fill="#fff" d="M235.48 388.71H225l-.73 4.34h10.84l.37-4.34z"/><path d="M235.11 393.6h-10.84a.55.55 0 0 1-.54-.64l.73-4.34a.54.54 0 0 1 .54-.45h10.48a.54.54 0 0 1 .4.17.55.55 0 0 1 .14.42l-.37 4.34a.54.54 0 0 1-.54.5zm-10.19-1.1h9.68l.28-3.24h-9.42z" fill="#263238"/><path fill="#fff" d="M273.4 388.71h-10.47l.57 4.34h10.84l-.94-4.34z"/><path d="M274.34 393.6H263.5a.54.54 0 0 1-.54-.48l-.58-4.34a.57.57 0 0 1 .13-.43.56.56 0 0 1 .42-.18h10.48a.55.55 0 0 1 .53.43l.93 4.33a.5.5 0 0 1-.11.46.54.54 0 0 1-.42.21zM264 392.5h9.68l-.7-3.24h-9.41z" fill="#263238"/><path fill="#fff" d="M172.26 388.71h-15.95l-3.09 4.34h16.5l2.54-4.34z"/><path d="M169.72 393.6h-16.5a.57.57 0 0 1-.49-.3.58.58 0 0 1 0-.57l3.09-4.33a.53.53 0 0 1 .45-.23h15.95a.55.55 0 0 1 .48.27.57.57 0 0 1 0 .55l-2.53 4.34a.57.57 0 0 1-.45.27zm-15.44-1.1h15.13l1.9-3.24h-14.72z" fill="#263238"/><path fill="#fff" d="M326.14 388.71l2.74 4.34h11.19l-3.11-4.34h-10.82z"/><path d="M340.07 393.6h-11.19a.55.55 0 0 1-.46-.26l-2.74-4.34a.54.54 0 0 1 .46-.84H337a.54.54 0 0 1 .44.22l3.12 4.34a.55.55 0 0 1-.45.87zm-10.89-1.1H339l-2.32-3.24h-9.55z" fill="#263238"/><path fill="#fff" d="M323.98 388.71H313.5l2.31 4.34h10.83l-2.66-4.34z"/><path d="M326.64 393.6h-10.83a.55.55 0 0 1-.49-.29L313 389a.55.55 0 0 1 .49-.8H324a.52.52 0 0 1 .46.26l2.67 4.33a.56.56 0 0 1 0 .56.55.55 0 0 1-.49.25zm-10.51-1.1h9.53l-2-3.24h-9.26z" fill="#263238"/><path fill="#fff" d="M311.33 388.71h-10.48l1.88 4.34h10.84l-2.24-4.34z"/><path d="M313.57 393.6h-10.84a.54.54 0 0 1-.5-.33l-1.88-4.34a.55.55 0 0 1 .5-.76h10.48a.54.54 0 0 1 .49.29l2.24 4.34a.55.55 0 0 1 0 .53.55.55 0 0 1-.49.27zm-10.48-1.1h9.58l-1.67-3.24h-9.31z" fill="#263238"/><path fill="#fff" d="M286.05 388.71h-10.48l1 4.34h10.84l-1.36-4.34z"/><path d="M287.41 393.6h-10.83a.56.56 0 0 1-.54-.43l-1-4.33a.56.56 0 0 1 .1-.47.54.54 0 0 1 .43-.2h10.48a.54.54 0 0 1 .52.38l1.37 4.33a.57.57 0 0 1-.08.49.57.57 0 0 1-.45.23zM277 392.5h9.66l-1-3.24h-9.39z" fill="#263238"/><path fill="#fff" d="M298.69 388.71h-10.48l1.44 4.34h10.84l-1.8-4.34z"/><path d="M300.49 393.6h-10.84a.56.56 0 0 1-.52-.38l-1.44-4.33a.56.56 0 0 1 .08-.5.54.54 0 0 1 .44-.22h10.48a.56.56 0 0 1 .51.33l1.8 4.34a.54.54 0 0 1-.05.51.56.56 0 0 1-.46.25zm-10.44-1.1h9.62l-1.34-3.24H289z" fill="#263238"/><path fill="#fff" d="M215.31 393.48h-10.9l-1.49 4.67h11.29l1.1-4.67z"/><path d="M214.21 398.7h-11.29a.54.54 0 0 1-.44-.22.57.57 0 0 1-.08-.49l1.49-4.68a.54.54 0 0 1 .52-.38h10.9a.54.54 0 0 1 .53.67l-1.1 4.68a.54.54 0 0 1-.53.42zm-10.54-1.09h10.1l.85-3.58h-9.81z" fill="#263238"/><path fill="#fff" d="M228.45 393.48h-10.89l-1.03 4.67h11.29l.63-4.67z"/><path d="M227.82 398.7h-11.29a.53.53 0 0 1-.42-.2.52.52 0 0 1-.11-.5l1-4.68a.55.55 0 0 1 .53-.43h10.9a.55.55 0 0 1 .55.62l-.64 4.68a.55.55 0 0 1-.52.51zm-10.61-1.09h10.13l.49-3.58H218z" fill="#263238"/><path fill="#fff" d="M241.6 393.48h-10.9l-.56 4.67h11.29l.17-4.67z"/><path d="M241.43 398.7h-11.29a.59.59 0 0 1-.41-.18.56.56 0 0 1-.13-.43l.55-4.68a.56.56 0 0 1 .55-.48h10.9a.55.55 0 0 1 .54.57l-.16 4.67a.54.54 0 0 1-.55.53zm-10.67-1.09h10.14l.1-3.61h-9.85z" fill="#263238"/><path fill="#fff" d="M189.02 393.48h-10.89l-2.43 4.67h11.28l2.04-4.67z"/><path d="M187 398.7h-11.3a.56.56 0 0 1-.47-.26.55.55 0 0 1 0-.54l2.43-4.67a.53.53 0 0 1 .49-.3H189a.53.53 0 0 1 .46.25.56.56 0 0 1 .05.52l-2 4.67a.56.56 0 0 1-.51.33zm-10.38-1.09h10l1.56-3.58h-9.73z" fill="#263238"/><path fill="#fff" d="M162.09 398.15h11.28l2.51-4.67h-10.9l-2.89 4.67z"/><path d="M173.37 398.7h-11.29a.54.54 0 0 1-.47-.28.52.52 0 0 1 0-.55l2.9-4.68a.54.54 0 0 1 .46-.26h10.9a.55.55 0 0 1 .48.81l-2.51 4.67a.54.54 0 0 1-.47.29zm-10.3-1.09h10L175 394h-9.67z" fill="#263238"/><path fill="#fff" d="M254.74 393.48h-10.9l-.08 4.67h11.28l-.3-4.67z"/><path d="M255 398.7h-11.24a.55.55 0 0 1-.55-.56l.08-4.67a.55.55 0 0 1 .55-.54h10.9a.56.56 0 0 1 .55.51l.3 4.68a.56.56 0 0 1-.15.41.54.54 0 0 1-.44.17zm-10.73-1.09h10.15l-.23-3.58h-9.85z" fill="#263238"/><path fill="#fff" d="M202.17 393.48h-10.9l-1.96 4.67h11.28l1.58-4.67z"/><path d="M200.6 398.7h-11.29a.56.56 0 0 1-.46-.24.57.57 0 0 1 0-.52l2-4.67a.55.55 0 0 1 .51-.34h10.9a.55.55 0 0 1 .44.23.57.57 0 0 1 .08.49l-1.58 4.68a.54.54 0 0 1-.6.37zm-10.47-1.09h10.07l1.2-3.58h-9.77z" fill="#263238"/><path fill="#fff" d="M320.45 393.48h-10.89l2.25 4.67h11.29l-2.65-4.67z"/><path d="M323.1 398.7h-11.29a.54.54 0 0 1-.49-.31l-2.26-4.67a.55.55 0 0 1 .5-.79h10.89a.56.56 0 0 1 .48.28l2.65 4.67a.59.59 0 0 1 0 .55.55.55 0 0 1-.48.27zm-10.94-1.09h10l-2-3.58h-9.7z" fill="#263238"/><path fill="#fff" d="M162.74 393.48h-9.83l-3.32 4.67h10.17l2.98-4.67z"/><path d="M159.76 398.7h-10.17a.54.54 0 0 1-.49-.29.55.55 0 0 1 0-.57l3.33-4.68a.56.56 0 0 1 .45-.23h9.82a.54.54 0 0 1 .46.84l-3 4.68a.53.53 0 0 1-.4.25zm-9.11-1.09h8.81l2.28-3.58h-8.54z" fill="#263238"/><path fill="#fff" d="M322.7 393.48l2.73 4.67h18.31l-3.36-4.67H322.7z"/><path d="M343.74 398.7h-18.31a.55.55 0 0 1-.48-.27l-2.72-4.68a.55.55 0 0 1 0-.54.56.56 0 0 1 .48-.28h17.68a.54.54 0 0 1 .44.23l3.36 4.67a.54.54 0 0 1 0 .57.53.53 0 0 1-.45.3zm-18-1.09h16.93L340.1 394h-16.45z" fill="#263238"/><path fill="#fff" d="M307.31 393.48h-10.9l1.79 4.67h11.29l-2.18-4.67z"/><path d="M309.49 398.7H298.2a.55.55 0 0 1-.51-.35l-1.79-4.68a.56.56 0 0 1 .06-.5.54.54 0 0 1 .45-.24h10.9a.55.55 0 0 1 .5.32l2.18 4.67a.58.58 0 0 1 0 .53.53.53 0 0 1-.5.25zm-10.91-1.09h10.05L307 394h-9.75z" fill="#263238"/><path fill="#fff" d="M267.88 393.48h-10.9l.39 4.67h11.28l-.77-4.67z"/><path d="M268.65 398.7h-11.28a.55.55 0 0 1-.55-.5l-.38-4.68a.56.56 0 0 1 .14-.41.57.57 0 0 1 .4-.18h10.9a.55.55 0 0 1 .54.46l.77 4.68a.51.51 0 0 1-.12.44.54.54 0 0 1-.42.19zm-10.78-1.09H268l-.59-3.58h-9.84z" fill="#263238"/><path fill="#fff" d="M281.02 393.48h-10.89l.85 4.67h11.29l-1.25-4.67z"/><path d="M282.27 398.7H271a.55.55 0 0 1-.54-.45l-.85-4.67a.52.52 0 0 1 .12-.45.52.52 0 0 1 .42-.2H281a.55.55 0 0 1 .53.41l1.24 4.67a.54.54 0 0 1-.52.69zm-10.83-1.09h10.11l-.95-3.61h-9.82z" fill="#263238"/><path fill="#fff" d="M294.17 393.48h-10.9l1.32 4.67h11.29l-1.71-4.67z"/><path d="M295.88 398.7h-11.29a.56.56 0 0 1-.53-.4l-1.32-4.67a.58.58 0 0 1 .09-.48.56.56 0 0 1 .44-.22h10.9a.54.54 0 0 1 .51.36l1.71 4.68a.56.56 0 0 1-.06.5.57.57 0 0 1-.45.23zM285 397.61h10.09l-1.3-3.58H284z" fill="#263238"/><path fill="#fff" d="M276.11 416.77h-74.77l-1.9 6.53h77.93l-1.26-6.53z"/><path d="M277.37 423.85h-77.93a.56.56 0 0 1-.44-.22.55.55 0 0 1-.08-.48l1.89-6.53a.55.55 0 0 1 .53-.39h74.76a.54.54 0 0 1 .54.44l1.27 6.53a.57.57 0 0 1-.12.45.53.53 0 0 1-.42.2zm-77.2-1.1h76.53l-1.05-5.43h-73.9z" fill="#263238"/><path fill="#fff" d="M198.69 416.77h-16.68l-2.71 6.53h17.39l2-6.53z"/><path d="M196.69 423.85H179.3a.53.53 0 0 1-.46-.25.54.54 0 0 1-.05-.51l2.72-6.53a.54.54 0 0 1 .5-.33h16.68a.53.53 0 0 1 .44.22.52.52 0 0 1 .09.48l-2 6.53a.55.55 0 0 1-.53.39zm-16.57-1.1h16.16l1.67-5.43h-15.57z" fill="#263238"/><path fill="#fff" d="M292.45 416.77h-13.7l1.37 6.53h14.28l-1.95-6.53z"/><path d="M294.4 423.85h-14.28a.54.54 0 0 1-.53-.44l-1.38-6.52a.57.57 0 0 1 .11-.46.55.55 0 0 1 .43-.2h13.7a.53.53 0 0 1 .52.39l2 6.52a.54.54 0 0 1-.09.49.53.53 0 0 1-.48.22zm-13.83-1.1h13.1l-1.67-5.43h-12.58z" fill="#263238"/><path fill="#fff" d="M147.58 423.3h13.53l3.45-6.53h-12.98l-4 6.53z"/><path d="M161.11 423.85h-13.53a.56.56 0 0 1-.48-.28.59.59 0 0 1 0-.56l4-6.52a.53.53 0 0 1 .46-.26h13a.55.55 0 0 1 .49.8l-3.45 6.53a.55.55 0 0 1-.49.29zm-12.55-1.1h12.22l2.87-5.43h-11.76z" fill="#263238"/><path fill="#fff" d="M179.37 416.77h-12.16l-3.34 6.53h12.67l2.83-6.53z"/><path d="M176.54 423.85h-12.67a.56.56 0 0 1-.47-.26.55.55 0 0 1 0-.54l3.34-6.53a.54.54 0 0 1 .49-.29h12.16a.57.57 0 0 1 .46.24.56.56 0 0 1 0 .52l-2.85 6.53a.54.54 0 0 1-.46.33zm-11.78-1.1h11.42l2.35-5.43h-11z" fill="#263238"/><path fill="#fff" d="M148.94 416.77h-12.6l-4.65 6.53h13.14l4.11-6.53z"/><path d="M144.83 423.85h-13.14a.57.57 0 0 1-.49-.3.58.58 0 0 1 0-.57l4.65-6.52a.53.53 0 0 1 .45-.23h12.6a.54.54 0 0 1 .48.28.56.56 0 0 1 0 .56l-4.11 6.52a.55.55 0 0 1-.44.26zm-12.08-1.1h11.77l3.43-5.43h-11.33z" fill="#263238"/><path fill="#fff" d="M308.8 416.77h-13.71l2.07 6.53h14.28l-2.64-6.53z"/><path d="M311.44 423.85h-14.28a.55.55 0 0 1-.52-.38l-2.07-6.53a.57.57 0 0 1 .08-.49.54.54 0 0 1 .44-.22h13.71a.53.53 0 0 1 .5.34l2.65 6.52a.56.56 0 0 1-.51.76zm-13.88-1.1h13.07l-2.2-5.43h-12.59z" fill="#263238"/><path fill="#fff" d="M344.13 416.77l4.14 6.53h13.53l-4.69-6.53h-12.98z"/><path d="M361.79 423.85h-13.52a.54.54 0 0 1-.46-.26l-4.14-6.52a.54.54 0 0 1 .46-.84h13a.54.54 0 0 1 .44.22l4.69 6.53a.54.54 0 0 1 0 .57.55.55 0 0 1-.47.3zm-13.22-1.1h12.16l-3.9-5.43h-11.7z" fill="#263238"/><path fill="#fff" d="M325.14 416.77h-13.7l2.76 6.53h14.28l-3.34-6.53z"/><path d="M328.48 423.85H314.2a.55.55 0 0 1-.51-.34l-2.76-6.51a.55.55 0 0 1 .51-.76h13.7a.54.54 0 0 1 .49.29l3.33 6.53a.55.55 0 0 1 0 .54.54.54 0 0 1-.48.25zm-13.92-1.1h13l-2.77-5.43h-12.52z" fill="#263238"/><path fill="#fff" d="M341.49 416.77h-13.7l3.44 6.53h14.28l-4.02-6.53z"/><path d="M345.51 423.85h-14.28a.54.54 0 0 1-.48-.29L327.3 417a.55.55 0 0 1 .49-.8h13.7a.52.52 0 0 1 .46.26l4 6.52a.56.56 0 0 1 0 .56.55.55 0 0 1-.44.31zm-13.95-1.1h13l-3.35-5.43h-12.52z" fill="#263238"/><path fill="#fff" d="M230.36 410.21h-12.23l-1.14 5.97h12.73l.64-5.97z"/><path d="M229.72 416.73H217a.56.56 0 0 1-.42-.2.53.53 0 0 1-.12-.45l1.14-6a.55.55 0 0 1 .54-.44h12.23a.59.59 0 0 1 .41.18.56.56 0 0 1 .13.43l-.64 6a.54.54 0 0 1-.55.48zm-12.07-1.1h11.58l.52-4.88h-11.17z" fill="#263238"/><path fill="#fff" d="M259.89 410.21h-12.23l.05 5.97h12.73l-.55-5.97z"/><path d="M260.44 416.73h-12.73a.54.54 0 0 1-.54-.55l-.06-6a.54.54 0 0 1 .16-.39.55.55 0 0 1 .39-.16h12.23a.54.54 0 0 1 .54.5l.56 6a.56.56 0 0 1-.15.42.55.55 0 0 1-.4.18zm-12.18-1.1h11.58l-.45-4.88h-11.18z" fill="#263238"/><path fill="#fff" d="M215.59 410.21h-12.23l-1.73 5.97h12.73l1.23-5.97z"/><path d="M214.36 416.73h-12.73a.56.56 0 0 1-.44-.22.59.59 0 0 1-.09-.48l1.74-6a.54.54 0 0 1 .52-.39h12.23a.54.54 0 0 1 .43.2.58.58 0 0 1 .11.46l-1.24 6a.55.55 0 0 1-.53.43zm-12-1.1h11.55l1-4.88h-11.14z" fill="#263238"/><path fill="#fff" d="M186.06 410.21h-12.23l-2.92 5.97h12.72l2.43-5.97z"/><path d="M183.63 416.73h-12.72a.56.56 0 0 1-.47-.26.53.53 0 0 1 0-.53l2.92-6a.54.54 0 0 1 .49-.31h12.24a.54.54 0 0 1 .5.75l-2.43 6a.55.55 0 0 1-.53.35zm-11.84-1.1h11.48l2-4.88h-11.1z" fill="#263238"/><path fill="#fff" d="M155.55 416.18h12.72l3.03-5.97h-12.23l-3.52 5.97z"/><path d="M168.27 416.73h-12.72a.56.56 0 0 1-.48-.28.54.54 0 0 1 0-.55l3.52-6a.52.52 0 0 1 .47-.27h12.24a.56.56 0 0 1 .47.26.55.55 0 0 1 0 .54l-3 6a.55.55 0 0 1-.5.3zm-11.76-1.1h11.43l2.47-4.88h-11z" fill="#263238"/><path fill="#fff" d="M200.83 410.21H188.6l-2.33 5.97H199l1.83-5.97z"/><path d="M199 416.73h-12.73a.54.54 0 0 1-.45-.24.52.52 0 0 1-.06-.51l2.33-6a.54.54 0 0 1 .51-.35h12.23a.54.54 0 0 1 .44.22.57.57 0 0 1 .08.49l-1.83 6a.55.55 0 0 1-.52.39zm-11.93-1.1h11.52l1.5-4.88H189z" fill="#263238"/><path fill="#fff" d="M245.12 410.21h-12.23l-.54 5.97h12.73l.04-5.97z"/><path d="M245.08 416.73h-12.73a.55.55 0 0 1-.4-.18.51.51 0 0 1-.14-.42l.54-6a.54.54 0 0 1 .54-.5h12.23a.55.55 0 0 1 .39.16.53.53 0 0 1 .16.39v6a.56.56 0 0 1-.59.55zm-12.08-1.1h11.59v-4.88h-11.2z" fill="#263238"/><path fill="#fff" d="M156.54 410.21h-15.53l-4.25 5.97h16.15l3.63-5.97z"/><path d="M152.91 416.73h-16.15a.55.55 0 0 1-.45-.87l4.25-6a.57.57 0 0 1 .45-.23h15.53a.54.54 0 0 1 .47.28.52.52 0 0 1 0 .55l-3.62 6a.55.55 0 0 1-.48.27zm-15.09-1.1h14.78l3-4.88h-14.31z" fill="#263238"/><path fill="#fff" d="M318.95 410.21h-12.24l2.45 5.97h12.72l-2.93-5.97z"/><path d="M321.88 416.73h-12.72a.55.55 0 0 1-.51-.34l-2.44-6a.54.54 0 0 1 .5-.75H319a.55.55 0 0 1 .49.3l2.94 6a.55.55 0 0 1-.5.79zm-12.36-1.1H321l-2.39-4.88h-11.08z" fill="#263238"/><path fill="#fff" d="M321.48 410.21l3.04 5.97h32.16l-4.29-5.97h-30.91z"/><path d="M356.68 416.73h-32.16a.55.55 0 0 1-.49-.3l-3-6a.55.55 0 0 1 0-.54.56.56 0 0 1 .47-.26h30.91a.55.55 0 0 1 .45.23l4.29 6a.56.56 0 0 1 0 .57.55.55 0 0 1-.47.3zm-31.83-1.1h30.76l-3.5-4.88h-29.74z" fill="#263238"/><path fill="#fff" d="M274.65 410.21h-12.23l.65 5.97h12.73l-1.15-5.97z"/><path d="M275.8 416.73h-12.73a.54.54 0 0 1-.54-.49l-.65-6a.56.56 0 0 1 .13-.43.58.58 0 0 1 .41-.18h12.23a.55.55 0 0 1 .54.44l1.15 6a.53.53 0 0 1-.12.45.56.56 0 0 1-.42.21zm-12.23-1.1h11.57l-.94-4.88H263z" fill="#263238"/><path fill="#fff" d="M289.42 410.21h-12.24l1.26 5.97h12.72l-1.74-5.97z"/><path d="M291.16 416.73h-12.73a.54.54 0 0 1-.53-.44l-1.25-6a.55.55 0 0 1 .11-.46.53.53 0 0 1 .42-.2h12.24a.55.55 0 0 1 .52.39l1.75 6a.55.55 0 0 1-.09.48.54.54 0 0 1-.44.23zm-12.28-1.1h11.55l-1.43-4.88h-11.14z" fill="#263238"/><path fill="#fff" d="M304.18 410.21h-12.23l1.85 5.97h12.72l-2.34-5.97z"/><path d="M306.52 416.73H293.8a.56.56 0 0 1-.53-.39l-1.85-6a.54.54 0 0 1 .09-.49.53.53 0 0 1 .44-.22h12.23a.54.54 0 0 1 .51.35l2.34 6a.54.54 0 0 1 0 .51.57.57 0 0 1-.51.24zm-12.32-1.1h11.52l-1.91-4.88h-11.12z" fill="#263238"/><path fill="#fff" d="M238.11 404.18h-11.77l-.77 5.48h12.23l.31-5.48z"/><path d="M237.8 410.21h-12.23a.55.55 0 0 1-.41-.19.57.57 0 0 1-.13-.43l.77-5.49a.55.55 0 0 1 .54-.47h11.77a.54.54 0 0 1 .4.17.56.56 0 0 1 .15.41l-.31 5.48a.56.56 0 0 1-.55.52zm-11.6-1.1h11.08l.25-4.39h-10.71z" fill="#263238"/><path fill="#fff" d="M252.31 404.18h-11.77l-.22 5.48h12.23l-.24-5.48z"/><path d="M252.55 410.21h-12.23a.52.52 0 0 1-.39-.17.55.55 0 0 1-.16-.4l.22-5.49a.56.56 0 0 1 .55-.52h11.77a.55.55 0 0 1 .55.52l.23 5.49a.5.5 0 0 1-.15.4.52.52 0 0 1-.39.17zm-11.66-1.1H252l-.19-4.39h-10.74z" fill="#263238"/><path fill="#fff" d="M223.91 404.18h-11.77l-1.31 5.48h12.22l.86-5.48z"/><path d="M223.05 410.21h-12.22a.55.55 0 0 1-.43-.21.53.53 0 0 1-.11-.47l1.32-5.48a.54.54 0 0 1 .53-.42h11.77a.55.55 0 0 1 .42.19.54.54 0 0 1 .13.44l-.87 5.49a.55.55 0 0 1-.54.46zm-11.53-1.1h11.06l.69-4.39h-10.69z" fill="#263238"/><path fill="#fff" d="M209.72 404.18h-11.77l-1.87 5.48h12.22l1.42-5.48z"/><path d="M208.3 410.21h-12.22a.55.55 0 0 1-.45-.23.54.54 0 0 1-.07-.49l1.87-5.49a.54.54 0 0 1 .52-.37h11.77a.55.55 0 0 1 .43.21.56.56 0 0 1 .1.47l-1.42 5.49a.55.55 0 0 1-.53.41zm-11.46-1.1h11l1.13-4.39h-10.63z" fill="#263238"/><path fill="#fff" d="M195.52 404.18h-11.77l-2.42 5.48h12.23l1.96-5.48z"/><path d="M193.56 410.21h-12.23a.54.54 0 0 1-.46-.25.53.53 0 0 1 0-.52l2.42-5.48a.54.54 0 0 1 .5-.33h11.77a.55.55 0 0 1 .45.23.55.55 0 0 1 .06.5l-2 5.49a.55.55 0 0 1-.51.36zm-11.39-1.1h11l1.57-4.39H184.1z" fill="#263238"/><path fill="#fff" d="M166.58 409.66h12.23l2.51-5.48h-11.77l-2.97 5.48z"/><path d="M178.81 410.21h-12.23a.55.55 0 0 1-.48-.81l3-5.48a.54.54 0 0 1 .48-.29h11.77a.53.53 0 0 1 .46.25.56.56 0 0 1 0 .52l-2.51 5.49a.56.56 0 0 1-.49.32zm-11.31-1.1h11l2-4.39h-10.62z" fill="#263238"/><path fill="#fff" d="M266.51 404.18h-11.77l.33 5.48h12.23l-.79-5.48z"/><path d="M267.29 410.21h-12.22a.56.56 0 0 1-.55-.51l-.33-5.49a.55.55 0 0 1 .55-.58h11.77a.55.55 0 0 1 .54.47l.79 5.48a.58.58 0 0 1-.13.44.57.57 0 0 1-.42.19zm-11.71-1.1h11.08l-.62-4.39h-10.72z" fill="#263238"/><path fill="#fff" d="M167.12 404.18H145.3l-3.9 5.48h22.66l3.06-5.48z"/><path d="M164.06 410.21H141.4a.53.53 0 0 1-.49-.3.56.56 0 0 1 0-.57l3.91-5.48a.52.52 0 0 1 .44-.23h21.82a.55.55 0 0 1 .48.81l-3.06 5.49a.56.56 0 0 1-.44.28zm-21.6-1.1h21.28l2.45-4.39h-20.61z" fill="#263238"/><path fill="#fff" d="M337.5 404.18h-11.77l3.08 5.48h12.22l-3.53-5.48z"/><path d="M341 410.21h-12.19a.56.56 0 0 1-.48-.28l-3.08-5.49a.55.55 0 0 1 .48-.81h11.77a.53.53 0 0 1 .46.25l3.54 5.49a.56.56 0 0 1-.47.84zm-11.9-1.1H340l-2.83-4.39h-10.5z" fill="#263238"/><path fill="#fff" d="M280.71 404.18h-11.77l.88 5.48h12.22l-1.33-5.48z"/><path d="M282 410.21h-12.18a.55.55 0 0 1-.54-.46l-.88-5.49a.54.54 0 0 1 .12-.44.57.57 0 0 1 .42-.19h11.77a.54.54 0 0 1 .53.42l1.34 5.48a.53.53 0 0 1-.11.47.55.55 0 0 1-.47.21zm-11.76-1.1h11.07l-1.07-4.39h-10.7z" fill="#263238"/><path fill="#fff" d="M323.3 404.18h-11.77l2.53 5.48h12.23l-2.99-5.48z"/><path d="M326.29 410.21h-12.23a.56.56 0 0 1-.5-.32l-2.56-5.48a.55.55 0 0 1 0-.53.54.54 0 0 1 .46-.25h11.84a.58.58 0 0 1 .49.28l3 5.49a.55.55 0 0 1-.48.81zm-11.88-1.1h11l-2.41-4.39h-10.61z" fill="#263238"/><path fill="#fff" d="M294.91 404.18h-11.77l1.42 5.48h12.23l-1.88-5.48z"/><path d="M296.79 410.21h-12.23a.56.56 0 0 1-.53-.41l-1.42-5.49a.53.53 0 0 1 .09-.47.58.58 0 0 1 .44-.21h11.77a.54.54 0 0 1 .51.37l1.89 5.48a.55.55 0 0 1-.07.5.57.57 0 0 1-.45.23zm-11.8-1.1h11l-1.5-4.39h-10.65z" fill="#263238"/><path fill="#fff" d="M309.11 404.18h-11.78l1.98 5.48h12.23l-2.43-5.48z"/><path d="M311.54 410.21h-12.23a.54.54 0 0 1-.51-.36l-2-5.49a.55.55 0 0 1 .51-.73h11.78a.56.56 0 0 1 .5.32l2.43 5.49a.56.56 0 0 1 0 .52.54.54 0 0 1-.48.25zm-11.84-1.1h11l-1.95-4.39h-10.64z" fill="#263238"/><path fill="#fff" d="M221.88 403.67h11.49l.46-5.05h-11.08l-.87 5.05z"/><path d="M233.37 404.22h-11.49a.55.55 0 0 1-.42-.19.57.57 0 0 1-.12-.45l.87-5.06a.54.54 0 0 1 .54-.45h11.08a.54.54 0 0 1 .41.18.57.57 0 0 1 .14.42l-.46 5.05a.55.55 0 0 1-.55.5zm-10.84-1.09h10.34l.36-4h-10z" fill="#263238"/><path fill="#fff" d="M207.97 403.67h11.49l.96-5.05h-11.09l-1.36 5.05z"/><path d="M219.46 404.22H208a.54.54 0 0 1-.53-.69l1.37-5.06a.55.55 0 0 1 .52-.4h11.09a.55.55 0 0 1 .42.2.55.55 0 0 1 .11.45l-.95 5.06a.56.56 0 0 1-.57.44zm-10.78-1.09H219l.76-4h-10z" fill="#263238"/><path fill="#fff" d="M235.79 403.67h11.49l-.03-5.05h-11.09l-.37 5.05z"/><path d="M247.28 404.22h-11.49a.53.53 0 0 1-.54-.59l.37-5.05a.55.55 0 0 1 .54-.51h11.09a.54.54 0 0 1 .54.54v5.06a.51.51 0 0 1-.16.39.55.55 0 0 1-.35.16zm-10.9-1.09h10.35v-4h-10z" fill="#263238"/><path fill="#fff" d="M166.23 403.67h11.49l2.45-5.05h-11.08l-2.86 5.05z"/><path d="M177.72 404.22h-11.49a.55.55 0 0 1-.48-.27.54.54 0 0 1 0-.55l2.86-5a.56.56 0 0 1 .48-.28h11.08a.57.57 0 0 1 .47.26.53.53 0 0 1 0 .53l-2.45 5.05a.54.54 0 0 1-.47.26zm-10.55-1.09h10.21l1.92-4h-9.89z" fill="#263238"/><path fill="#fff" d="M180.14 403.67h11.49l1.96-5.05H182.5l-2.36 5.05z"/><path d="M191.63 404.22h-11.49a.53.53 0 0 1-.46-.25.56.56 0 0 1 0-.53l2.37-5.06a.54.54 0 0 1 .49-.31h11.09a.54.54 0 0 1 .45.24.56.56 0 0 1 .06.5l-2 5.06a.54.54 0 0 1-.51.35zM181 403.13h10.26l1.53-4h-9.94z" fill="#263238"/><path fill="#fff" d="M249.7 403.67h11.5l-.54-5.05h-11.08l.12 5.05z"/><path d="M261.2 404.22h-11.5a.54.54 0 0 1-.54-.53l-.13-5.06a.55.55 0 0 1 .55-.56h11.08a.55.55 0 0 1 .55.49l.53 5.06a.54.54 0 0 1-.13.42.55.55 0 0 1-.41.18zm-11-1.09h10.35l-.42-4h-10z" fill="#263238"/><path fill="#fff" d="M194.05 403.67h11.49l1.46-5.05h-11.08l-1.87 5.05z"/><path d="M205.55 404.22h-11.5a.54.54 0 0 1-.51-.74l1.87-5.05a.53.53 0 0 1 .51-.36H207a.55.55 0 0 1 .53.7l-1.46 5.06a.55.55 0 0 1-.52.39zm-10.71-1.09h10.29l1.14-4h-10z" fill="#263238"/><path d="M344.07 398.62H332.4l3.2 5.05h2.85a1.46 1.46 0 0 1 1.06.35l3.75 5.7h8.6z" fill="#fff"/><path d="M351.86 410.27h-8.6a.55.55 0 0 1-.45-.25l-3.75-5.7a2 2 0 0 0-.6-.1h-2.86a.54.54 0 0 1-.46-.25l-3.2-5.06a.56.56 0 0 1 0-.56.57.57 0 0 1 .48-.28h11.67a.56.56 0 0 1 .45.23l7.79 11.1a.56.56 0 0 1 0 .57.57.57 0 0 1-.47.3zm-8.3-1.1h7.25l-7-10H333.4l2.5 4h2.55a1.94 1.94 0 0 1 1.52.59z" fill="#263238"/><path fill="#fff" d="M305.36 403.67h11.49l-2.53-5.05h-11.08l2.12 5.05z"/><path d="M316.85 404.22h-11.49a.56.56 0 0 1-.51-.33l-2.11-5.06a.54.54 0 0 1 0-.52.57.57 0 0 1 .46-.24h11.08a.55.55 0 0 1 .49.3l2.53 5.06a.53.53 0 0 1 0 .53.56.56 0 0 1-.45.26zm-11.13-1.09H316l-2-4h-9.92z" fill="#263238"/><path fill="#fff" d="M319.27 403.67h13.91l-3.11-5.05h-13.41l2.61 5.05z"/><path d="M333.18 404.22h-13.91a.54.54 0 0 1-.49-.3l-2.61-5.05a.55.55 0 0 1 .49-.8h13.41a.56.56 0 0 1 .47.26l3.11 5.06a.54.54 0 0 1 0 .55.56.56 0 0 1-.47.28zm-13.58-1.09h12.6l-2.43-4h-12.21z" fill="#263238"/><path fill="#fff" d="M145.66 403.67h18.15l2.95-5.05h-17.5l-3.6 5.05z"/><path d="M163.81 404.22h-18.15a.55.55 0 0 1-.45-.86l3.6-5.06a.56.56 0 0 1 .45-.23h17.5a.55.55 0 0 1 .47.82l-2.95 5.11a.55.55 0 0 1-.47.22zm-17.09-1.09h16.77l2.31-4h-16.26z" fill="#263238"/><path fill="#fff" d="M263.62 403.67h11.49l-1.03-5.05H263l.62 5.05z"/><path d="M275.11 404.22h-11.49a.55.55 0 0 1-.55-.48l-.62-5.06a.57.57 0 0 1 .13-.43.6.6 0 0 1 .42-.18h11.08a.54.54 0 0 1 .53.44l1 5.05a.57.57 0 0 1-.11.46.55.55 0 0 1-.39.2zm-11-1.09h10.34l-.81-4h-10z" fill="#263238"/><path fill="#fff" d="M291.44 403.67h11.5l-2.03-5.05h-11.08l1.61 5.05z"/><path d="M302.94 404.22h-11.5a.55.55 0 0 1-.52-.38l-1.62-5.06a.58.58 0 0 1 .08-.49.56.56 0 0 1 .45-.22h11.08a.57.57 0 0 1 .51.34l2 5.06a.58.58 0 0 1-.06.51.54.54 0 0 1-.42.24zm-11.1-1.09h10.29l-1.59-4h-10z" fill="#263238"/><path fill="#fff" d="M277.53 403.67h11.49l-1.53-5.05h-11.08l1.12 5.05z"/><path d="M289 404.22h-11.47a.54.54 0 0 1-.53-.43l-1.12-5.05a.56.56 0 0 1 .1-.47.55.55 0 0 1 .43-.2h11.08a.56.56 0 0 1 .53.39l1.53 5.05a.54.54 0 0 1-.09.49.53.53 0 0 1-.46.22zm-11-1.09h10.32l-1.2-4h-10z" fill="#263238"/></g><g><path d="M284.76 342.8v-25.19h-74.2v25.19a36.52 36.52 0 0 1-7.88 22.65l-3.25 4.1h96.46l-3.25-4.1a36.46 36.46 0 0 1-7.88-22.65z" fill="#fff"/><path d="M295.89 370.1h-96.46a.57.57 0 0 1-.5-.31.56.56 0 0 1 .07-.58l3.25-4.1A36.1 36.1 0 0 0 210 342.8v-25.19a.55.55 0 0 1 .55-.55h74.2a.55.55 0 0 1 .55.55v25.19a36 36 0 0 0 7.76 22.31l3.25 4.1a.55.55 0 0 1 .06.58.54.54 0 0 1-.48.31zm-95.33-1.1h94.19l-2.54-3.21a37.17 37.17 0 0 1-8-23v-24.63h-73.1v24.64a37.23 37.23 0 0 1-8 23z" fill="#263238"/><path d="M206 360.45h83.31a36.5 36.5 0 0 1-4.55-17.65v-25.19h-74.2v25.19a36.51 36.51 0 0 1-4.56 17.65z" style="mix-blend-mode:multiply" fill="#b4dbb6"/><path fill="#263238" d="M210.56 321.4h74.2v10.64h-74.2z"/><path d="M284.76 332.59h-74.2a.55.55 0 0 1-.56-.59v-10.6a.55.55 0 0 1 .55-.55h74.2a.55.55 0 0 1 .55.55V332a.55.55 0 0 1-.54.59zm-73.65-1.1h73.1V322h-73.1z" fill="#263238"/><rect x="98.55" y="101.9" width="298.21" height="223.66" rx="9.29" fill="#263238"/><path d="M387.47 326.1H107.85a9.85 9.85 0 0 1-9.85-9.84V111.19a9.85 9.85 0 0 1 9.85-9.84h279.62a9.85 9.85 0 0 1 9.84 9.84v205.07a9.85 9.85 0 0 1-9.84 9.84zM107.85 102.44a8.76 8.76 0 0 0-8.75 8.75v205.07a8.76 8.76 0 0 0 8.75 8.75h279.62a8.77 8.77 0 0 0 8.75-8.75V111.19a8.77 8.77 0 0 0-8.75-8.75z" fill="#263238"/><path d="M98.55 290.79h298.21v25.47a9.29 9.29 0 0 1-9.29 9.29H107.85a9.29 9.29 0 0 1-9.29-9.29v-25.47h-.01z" fill="#fff"/><path d="M387.47 326.1H107.85a9.85 9.85 0 0 1-9.85-9.84v-25.47a.55.55 0 0 1 .55-.55h298.21a.55.55 0 0 1 .55.55v25.47a9.85 9.85 0 0 1-9.84 9.84zM99.1 291.34v24.92a8.76 8.76 0 0 0 8.75 8.75h279.62a8.77 8.77 0 0 0 8.75-8.75v-24.92z" fill="#263238"/><path fill="#b4dbb6" d="M113.55 115.81h268.21v158.01H113.55z"/><path d="M381.76 274.37H113.55a.55.55 0 0 1-.55-.55v-158a.55.55 0 0 1 .55-.55h268.21a.55.55 0 0 1 .55.55v158a.54.54 0 0 1-.55.55zm-267.66-1.09h267.12V116.36H114.1z" fill="#263238"/><path d="M354.19 239.63H141.34a.5.5 0 0 1-.5-.5v-95.6a.5.5 0 0 1 .5-.5h212.85a.5.5 0 0 1 .5.5v95.6a.51.51 0 0 1-.5.5zm-212.35-1h211.85V144H141.84z" fill="#fff"/><path d="M262.64 120.58H116.09a.5.5 0 0 1-.5-.5.5.5 0 0 1 .5-.5h146.4l3.93-2.62a.49.49 0 0 1 .7.14.5.5 0 0 1-.14.69l-4.06 2.7a.47.47 0 0 1-.28.09z" fill="#fff"/><path d="M318.11 120.58H265.8a.5.5 0 0 1-.5-.5.5.5 0 0 1 .5-.5H318l3.93-2.62a.48.48 0 0 1 .69.14.49.49 0 0 1-.13.69l-4.06 2.7a.47.47 0 0 1-.32.09z" fill="#fff"/><path d="M374.93 120.58h-52.31a.5.5 0 0 1-.5-.5.5.5 0 0 1 .5-.5h52.16l3.93-2.62a.48.48 0 0 1 .69.14.49.49 0 0 1-.14.69l-4.05 2.7a.49.49 0 0 1-.28.09z" fill="#fff"/><circle cx="146.53" cy="136.99" r="1.58" fill="#fff"/><circle cx="153.97" cy="136.99" r="1.58" fill="#fff"/><circle cx="161.41" cy="136.99" r="1.58" fill="#fff"/><path fill="#fff" d="M367.56 232.11l-9.61-5.55v11.1l9.61-5.55z"/><path fill="#fff" d="M128.48 232.11l9.61-5.55v11.1l-9.61-5.55z"/><path d="M253.16 308.17a5.5 5.5 0 1 0-5.5 5.5 5.5 5.5 0 0 0 5.5-5.5z" fill="#263238"/><path d="M247.66 314.22a6.05 6.05 0 1 1 6.05-6.05 6.05 6.05 0 0 1-6.05 6.05zm0-11a4.95 4.95 0 1 0 5 4.95 5 5 0 0 0-5-4.95z" fill="#263238"/><path fill="#fff" d="M199.43 369.55h96.48v4.5h-96.48z"/><path d="M295.91 374.6h-96.48a.55.55 0 0 1-.55-.55v-4.5a.55.55 0 0 1 .55-.55h96.48a.55.55 0 0 1 .55.55v4.5a.55.55 0 0 1-.55.55zM200 373.5h95.38v-3.4H200z" fill="#263238"/></g><g><path fill="#fff" d="M310.19 140.49v9.7h7.5v-9.57l-7.5-.13z"/><path d="M317.69 150.69h-7.5a.51.51 0 0 1-.5-.5v-9.7a.51.51 0 0 1 .15-.35.49.49 0 0 1 .36-.15l7.5.13a.51.51 0 0 1 .49.5v9.57a.5.5 0 0 1-.5.5zm-7-1h6.5v-8.58l-6.5-.11z" fill="#263238"/><path d="M307.78 246.86s-1.48 3.39-3.8 4.81-1.78 2.23-.71 2.5 8.74 0 8.74 0 .72-.09.72-1.87-.46-5.44-.46-5.44z" fill="#fff"/><path d="M306.1 254.79a19.1 19.1 0 0 1-3-.13c-1-.25-1.24-.8-1.28-1.11-.12-.71.49-1.47 1.85-2.3 2.16-1.33 3.59-4.55 3.6-4.59a.51.51 0 0 1 .46-.3h4.49a.5.5 0 0 1 .49.44c0 .15.47 3.7.47 5.5 0 2.12-1 2.34-1.16 2.37-.48.02-3.51.12-5.92.12zm2-7.43a12.09 12.09 0 0 1-3.86 4.74c-1.19.73-1.4 1.19-1.39 1.3s.16.19.54.29a81.75 81.75 0 0 0 8.52 0c.07-.06.32-.35.32-1.37 0-1.37-.29-3.92-.41-4.94z" fill="#263238"/><path d="M323.81 246.86s1.48 3.39 3.8 4.81 1.78 2.23.71 2.5-8.74 0-8.74 0-.72-.09-.72-1.87.46-5.44.46-5.44z" fill="#fff"/><path d="M325.49 254.79c-2.41 0-5.43-.1-5.93-.12-.24 0-1.2-.25-1.2-2.37 0-1.8.45-5.35.47-5.5a.5.5 0 0 1 .49-.44h4.49a.51.51 0 0 1 .46.3s1.44 3.26 3.6 4.59c1.36.83 2 1.59 1.85 2.3 0 .31-.27.86-1.28 1.11a19.19 19.19 0 0 1-2.95.13zm-5.81-1.12a81.75 81.75 0 0 0 8.52 0c.38-.1.53-.24.54-.29s-.2-.57-1.4-1.3a12.14 12.14 0 0 1-3.85-4.74h-3.72c-.12 1-.41 3.57-.41 4.94 0 1.04.25 1.33.32 1.39z" fill="#263238"/><path fill="#263238" d="M303.45 188.72l4.13 58.11h4.74l1.99-52.91h1.37l3.67 52.76h4.74l2.15-56.43-.77-2.45-21.1-.45-.92 1.37z"/><path d="M312.32 247.33h-4.74a.5.5 0 0 1-.5-.46L303 188.76a.53.53 0 0 1 .08-.32l.92-1.37a.53.53 0 0 1 .43-.22l21.1.45a.51.51 0 0 1 .47.36l.76 2.44a.33.33 0 0 1 0 .17l-2.14 56.43a.5.5 0 0 1-.5.48h-4.74a.5.5 0 0 1-.5-.47l-3.63-52.29h-.43l-2 52.43a.5.5 0 0 1-.5.48zm-4.28-1h3.8l2-52.43a.5.5 0 0 1 .5-.48h1.37a.5.5 0 0 1 .5.47l3.64 52.29h3.79l2.12-55.86-.63-2-20.47-.45-.67 1z" fill="#263238"/><path fill="#fff" d="M307.29 242.7l.29 4.13h4.74l.15-4.13h-5.18z"/><path d="M312.32 247.33h-4.74a.5.5 0 0 1-.5-.46l-.29-4.13a.52.52 0 0 1 .13-.38.51.51 0 0 1 .37-.16h5.18a.48.48 0 0 1 .36.16.45.45 0 0 1 .14.36l-.15 4.13a.5.5 0 0 1-.5.48zm-4.28-1h3.8l.11-3.13h-4.13z" fill="#263238"/><path fill="#fff" d="M319.08 242.7l.27 3.98h4.74l.15-3.98h-5.16z"/><path d="M324.09 247.18h-4.74a.5.5 0 0 1-.5-.47l-.27-4a.52.52 0 0 1 .13-.38.51.51 0 0 1 .37-.16h5.16a.48.48 0 0 1 .36.16.45.45 0 0 1 .14.36l-.15 4a.5.5 0 0 1-.5.49zm-4.27-1h3.79l.11-3h-4.11z" fill="#263238"/><path fill="#fff" d="M305.15 149.15h17.19v38.65h-17.19z"/><path d="M322.35 188.31h-17.2a.51.51 0 0 1-.5-.5v-38.66a.51.51 0 0 1 .5-.5h17.2a.51.51 0 0 1 .5.5v38.66a.51.51 0 0 1-.5.5zm-16.7-1h16.2v-37.66h-16.2z" fill="#263238"/><path d="M320.29 133.9s1.33-1.79 1.63 0-2.28 4-2.28 4z" fill="#fff"/><path d="M319.64 138.41a.42.42 0 0 1-.24-.07.48.48 0 0 1-.25-.51l.64-4a.55.55 0 0 1 .1-.22c.2-.28.93-1.16 1.69-1 .44.11.72.51.84 1.19.33 2-2.17 4.22-2.45 4.47a.52.52 0 0 1-.33.14zm1.12-4.3l-.37 2.29a3.55 3.55 0 0 0 1-2.42.79.79 0 0 0-.13-.4 3.4 3.4 0 0 0-.5.53z" fill="#263238"/><path d="M307.48 133.9s-1.34-1.79-1.64 0 2.29 4 2.29 4z" fill="#fff"/><path d="M308.13 138.41a.5.5 0 0 1-.33-.12c-.29-.25-2.78-2.47-2.45-4.47.11-.68.4-1.08.84-1.19.75-.19 1.48.69 1.69 1a.43.43 0 0 1 .09.22l.65 4a.51.51 0 0 1-.25.51.44.44 0 0 1-.24.05zm-1.71-4.8s0 .14-.08.37a3.51 3.51 0 0 0 1 2.42l-.37-2.29a1.82 1.82 0 0 0-.55-.5z" fill="#263238"/><path d="M314.33 125.11s-5-.39-6.2 3-.39 8.79 0 9.83 3.62 6.07 4.52 6.46 3.1.26 3.49-.26 3.62-5.3 3.88-7a62.94 62.94 0 0 0-.14-7.41 4.61 4.61 0 0 0-2.84-4 8.56 8.56 0 0 0-2.71-.62z" fill="#fff"/><path d="M314.17 145.1a4.84 4.84 0 0 1-1.72-.27c-1.14-.49-4.44-5.8-4.79-6.75-.46-1.21-1.19-6.75 0-10.16 1.27-3.67 6.45-3.33 6.72-3.31a9.34 9.34 0 0 1 2.86.63 5.14 5.14 0 0 1 3.15 4.45 59 59 0 0 1 .13 7.52c-.3 1.95-3.93 7.15-4 7.2a3.26 3.26 0 0 1-2.35.69zm-.29-19.5c-1.17 0-4.44.22-5.28 2.65-1.14 3.29-.33 8.61 0 9.48.4 1.06 3.53 5.84 4.26 6.18a4.53 4.53 0 0 0 2.9-.11c.46-.62 3.54-5.24 3.78-6.74a58 58 0 0 0-.15-7.31 4.14 4.14 0 0 0-2.53-3.58 8.2 8.2 0 0 0-2.55-.56z" fill="#263238"/><path d="M319.88 129.72a4.61 4.61 0 0 0-2.84-4 8.56 8.56 0 0 0-2.71-.6s-5-.39-6.2 3a16.28 16.28 0 0 0-.58 5.91c.26.29 1.1 1.19 1 .06-.15-1.34-.3-5.35.74-6.24s1.19-1.64 2.68-.45 1.33 2.23 2.82 1.49 1.78-2.38 3.12-1.79.89 3.42.89 4.76 0 3.86.89 2.67a3.28 3.28 0 0 0 .4-.8c-.09-1.4-.15-2.88-.21-4.01z" fill="#263238"/><path d="M319.27 135.3a.91.91 0 0 1-.23 0c-.66-.22-.77-1.25-.77-3.45v-.88c.06-1.15.16-3.07-.62-3.42-.44-.2-.62-.08-1.22.57a5 5 0 0 1-1.48 1.2 1.61 1.61 0 0 1-2.38-.55 6.43 6.43 0 0 0-1-1c-.86-.69-.93-.63-1.51 0-.15.15-.32.31-.52.48-.69.59-.8 3.78-.57 5.81 0 .21.09.84-.41 1.06s-.85-.05-1.44-.74a.53.53 0 0 1-.12-.3 17.1 17.1 0 0 1 .6-6.09c1.28-3.68 6.5-3.33 6.72-3.31a9.34 9.34 0 0 1 2.86.63 5.14 5.14 0 0 1 3.15 4.45c.06 1.14.14 2.62.18 4a.69.69 0 0 1 0 .2 3.84 3.84 0 0 1-.47.92 1 1 0 0 1-.77.42zm.07-5.94v2.46a17.5 17.5 0 0 0 .1 2.19 4.46 4.46 0 0 0 .19-.41c-.05-1.33-.12-2.75-.18-3.85-.08-.13-.09-.26-.11-.39zm-8.62-3.11a2.59 2.59 0 0 1 1.53.72 7.79 7.79 0 0 1 1.12 1.13c.49.59.52.62 1.17.3a4.17 4.17 0 0 0 1.19-1 2.3 2.3 0 0 1 1.62-1 3.78 3.78 0 0 0-.53-.27 8.2 8.2 0 0 0-2.55-.56 8.59 8.59 0 0 0-3.84.66z" fill="#263238"/><path d="M328.55 151.22s4.53 15.13 4.53 18.23-2.85 5.82-4.14 5.69-2.84-6.34-3.36-7.76a12.46 12.46 0 0 1-.65-2.71z" fill="#fff"/><path d="M329 175.64h-.14c-1.15-.12-2-2.35-3.35-6.71-.18-.6-.33-1.09-.43-1.38a12.62 12.62 0 0 1-.67-2.83.37.37 0 0 1 0-.18l3.62-13.45a.52.52 0 0 1 .48-.37.5.5 0 0 1 .48.36c.19.62 4.55 15.23 4.55 18.37a7.26 7.26 0 0 1-2.42 5.13 3.5 3.5 0 0 1-2.12 1.06zm-3.59-10.93a12.11 12.11 0 0 0 .61 2.5c.11.3.26.81.45 1.43.43 1.43 1.75 5.78 2.5 6 .3 0 .83-.21 1.49-.8a6.25 6.25 0 0 0 2.09-4.39c0-2.38-2.83-12.35-4-16.38z" fill="#263238"/><path d="M310.07 146.18s2.19 14.35 2.19 18.36S311.1 194 311.1 194l-11-.77s4.14-17.2 4.14-20.43-5.17-21.59-5.17-21.59a28.71 28.71 0 0 1 11-5.03z" fill="#fff"/><path d="M311.1 194.51l-11-.77a.49.49 0 0 1-.37-.21.46.46 0 0 1-.08-.41c0-.17 4.12-17.17 4.12-20.31s-5.1-21.27-5.16-21.45a.51.51 0 0 1 .18-.53 28.94 28.94 0 0 1 11.2-5.14.46.46 0 0 1 .38.08.52.52 0 0 1 .21.33c.09.59 2.2 14.44 2.2 18.44s-1.15 29.24-1.16 29.5a.53.53 0 0 1-.17.35.5.5 0 0 1-.35.12zm-10.37-1.73l9.89.7c.17-3.62 1.14-25.3 1.14-28.94s-1.72-15.15-2.11-17.76a28.61 28.61 0 0 0-10 4.64c.72 2.57 5.1 18.33 5.1 21.39s-3.29 16.9-4.02 19.97z" fill="#263238"/><path d="M317.64 146.07s-2.27 14.46-2.27 18.47 1.16 29.46 1.16 29.46l11-.77s-4.14-17.2-4.14-20.43 5.17-21.59 5.17-21.59a27.4 27.4 0 0 0-10.92-5.14z" fill="#fff"/><path d="M316.53 194.51a.5.5 0 0 1-.33-.12.53.53 0 0 1-.2-.39c0-.26-1.16-25.53-1.16-29.5s2.18-18 2.28-18.55a.5.5 0 0 1 .2-.33.51.51 0 0 1 .38-.08 27.53 27.53 0 0 1 11.14 5.26.49.49 0 0 1 .16.52c0 .18-5.15 18.33-5.15 21.45S328 193 328 193.12a.46.46 0 0 1-.08.41.51.51 0 0 1-.37.21l-11 .77zm1.52-47.84c-.4 2.61-2.18 14.37-2.18 17.87s1 25.32 1.14 28.94l9.89-.7c-.74-3.07-4-17-4-20s4.39-18.85 5.1-21.4a27.45 27.45 0 0 0-9.95-4.71z" fill="#263238"/><path d="M299.08 151.22s-3 14.35-3.24 19.65 3.62 4.14 4.66 2.33 2.45-7.76 2.45-7.76z" fill="#fff"/><path d="M298 175.22a2.59 2.59 0 0 1-.68-.09c-.79-.23-2.09-1.1-1.93-4.28.25-5.28 3.11-19.14 3.24-19.73a.5.5 0 0 1 .47-.4.51.51 0 0 1 .5.37l3.88 14.22a.53.53 0 0 1 0 .25c-.06.25-1.45 6-2.51 7.89a3.67 3.67 0 0 1-2.97 1.77zm1.19-21.83c-.83 4.17-2.61 13.51-2.81 17.51-.09 1.85.35 3 1.22 3.27a2.48 2.48 0 0 0 2.5-1.22c.91-1.58 2.17-6.64 2.38-7.5z" fill="#263238"/><path d="M318.73 164.67a7.88 7.88 0 0 1 3.62.64 6.63 6.63 0 0 1 2.07 2.2H319z" fill="#fff"/><path d="M324.42 168H319a.5.5 0 0 1-.5-.45l-.26-2.85a.5.5 0 0 1 .12-.37.51.51 0 0 1 .35-.17 8.1 8.1 0 0 1 3.9.72 6.87 6.87 0 0 1 2.25 2.38.47.47 0 0 1 0 .5.49.49 0 0 1-.44.24zm-5-1h4a5.52 5.52 0 0 0-1.38-1.27 6.35 6.35 0 0 0-2.82-.58z" fill="#263238"/><path d="M327.26 166.35l-19.26-1-.26 2.85 19.91 6.8s2.45.91 2.84-1.29" fill="#fff"/><path d="M328.73 175.69a4.27 4.27 0 0 1-1.26-.21l-19.89-6.85a.5.5 0 0 1-.34-.52l.26-2.84a.51.51 0 0 1 .52-.46l19.27 1a.5.5 0 0 1 .47.53.52.52 0 0 1-.53.47l-18.78-1-.18 2 19.54 6.73a2.33 2.33 0 0 0 1.65 0 1.18 1.18 0 0 0 .54-.9.49.49 0 0 1 .58-.4.48.48 0 0 1 .4.57 2.15 2.15 0 0 1-1 1.6 2.5 2.5 0 0 1-1.25.28z" fill="#263238"/><path d="M299.46 165.7l19.27-1 .26 2.84-19.91 6.85s-2.46.91-2.85-1.29" fill="#fff"/><path d="M298 175.05a2.43 2.43 0 0 1-1.23-.3 2.16 2.16 0 0 1-1-1.59.5.5 0 0 1 .41-.58.49.49 0 0 1 .57.4 1.21 1.21 0 0 0 .54.9 2.19 2.19 0 0 0 1.64 0l19.55-6.72-.18-2-18.78 1a.5.5 0 0 1-.05-1l19.26-1a.5.5 0 0 1 .53.45l.25 2.85a.48.48 0 0 1-.33.51l-19.91 6.86a4 4 0 0 1-1.27.22z" fill="#263238"/><path fill="#263238" d="M296.75 260.87l.89 2.75h2.9l-2.34 1.7.89 2.75-2.34-1.7-2.34 1.7.89-2.75-2.34-1.7h2.9l.89-2.75z"/><path d="M299.09 268.57a.52.52 0 0 1-.29-.09l-2.05-1.48-2.05 1.49a.5.5 0 0 1-.77-.56l.78-2.41-2-1.49a.5.5 0 0 1 .29-.9h2.53l.78-2.41a.53.53 0 0 1 1 0l.78 2.41h2.53a.5.5 0 0 1 .29.9l-2 1.49.78 2.41a.49.49 0 0 1-.48.65zm-2.34-2.7a.45.45 0 0 1 .29.1l1.1.79-.42-1.29a.5.5 0 0 1 .18-.55l1.1-.8h-1.36a.5.5 0 0 1-.47-.35l-.42-1.29-.42 1.29a.5.5 0 0 1-.47.35h-1.36l1.1.8a.5.5 0 0 1 .18.55l-.42 1.29 1.1-.79a.45.45 0 0 1 .29-.1z" fill="#263238"/><path fill="#263238" d="M307.23 260.87l.89 2.75h2.9l-2.34 1.7.89 2.75-2.34-1.7-2.34 1.7.89-2.75-2.34-1.7h2.89l.9-2.75z"/><path d="M304.89 268.57a.49.49 0 0 1-.48-.65l.78-2.41-2-1.49a.49.49 0 0 1 .29-.9H306l.78-2.41a.52.52 0 0 1 .95 0l.79 2.41H311a.5.5 0 0 1 .47.34.49.49 0 0 1-.18.56l-2.05 1.49.79 2.41a.5.5 0 0 1-.77.56l-2-1.49-2.05 1.49a.52.52 0 0 1-.32.09zm2.34-2.7a.46.46 0 0 1 .29.1l1.1.79-.42-1.29a.49.49 0 0 1 .18-.55l1.1-.8h-1.36a.49.49 0 0 1-.47-.35l-.42-1.29-.42 1.29a.5.5 0 0 1-.48.35H305l1.1.8a.5.5 0 0 1 .18.55l-.42 1.29 1.09-.79a.49.49 0 0 1 .28-.1z" fill="#263238"/><path fill="#fff" d="M317.71 260.87l.89 2.75h2.9l-2.35 1.7.9 2.75-2.34-1.7-2.34 1.7.89-2.75-2.34-1.7h2.89l.9-2.75z"/><path d="M320.05 268.57a.5.5 0 0 1-.29-.09l-2.05-1.48-2 1.49a.53.53 0 0 1-.59 0 .51.51 0 0 1-.18-.56l.78-2.41-2-1.49a.49.49 0 0 1 .29-.9h2.53l.78-2.41a.52.52 0 0 1 .95 0l.79 2.41h2.53a.5.5 0 0 1 .47.34.49.49 0 0 1-.18.56l-2.05 1.49.79 2.41a.51.51 0 0 1-.19.56.5.5 0 0 1-.38.08zm-2.34-2.7a.46.46 0 0 1 .29.1l1.1.79-.42-1.29a.49.49 0 0 1 .18-.55l1.1-.8h-1.36a.49.49 0 0 1-.47-.35l-.42-1.29-.42 1.29a.5.5 0 0 1-.48.35h-1.35l1.09.8a.49.49 0 0 1 .19.55l-.42 1.29 1.09-.79a.47.47 0 0 1 .3-.1z" fill="#263238"/><path fill="#fff" d="M328.19 260.87l.89 2.75h2.9l-2.35 1.7.9 2.75-2.34-1.7-2.34 1.7.89-2.75-2.34-1.7h2.89l.9-2.75z"/><path d="M330.53 268.57a.53.53 0 0 1-.3-.09l-2-1.49-2.05 1.49a.53.53 0 0 1-.59 0 .51.51 0 0 1-.18-.56l.78-2.41-2-1.49a.52.52 0 0 1-.18-.56.51.51 0 0 1 .48-.34h2.53l.78-2.41a.52.52 0 0 1 1 0l.78 2.41H332a.5.5 0 0 1 .29.9l-2 1.49.78 2.41a.49.49 0 0 1-.18.56.52.52 0 0 1-.36.09zm-2.34-2.7a.46.46 0 0 1 .29.1l1.1.79-.42-1.29a.49.49 0 0 1 .18-.55l1.1-.8h-1.36a.48.48 0 0 1-.47-.35l-.42-1.29-.42 1.29a.5.5 0 0 1-.48.35h-1.35l1.09.8a.49.49 0 0 1 .19.55l-.42 1.29 1.09-.79a.47.47 0 0 1 .3-.1z" fill="#263238"/><path fill="#fff" d="M338.67 260.87l.89 2.75h2.89l-2.34 1.7.9 2.75-2.34-1.7-2.35 1.7.9-2.75-2.34-1.7h2.89l.9-2.75z"/><path d="M341 268.57a.53.53 0 0 1-.3-.09l-2-1.49-2.05 1.49a.53.53 0 0 1-.59 0 .51.51 0 0 1-.18-.56l.78-2.41-2.08-1.51a.5.5 0 0 1 .3-.9h2.53l.78-2.41a.52.52 0 0 1 .95 0l.78 2.41h2.54a.5.5 0 0 1 .29.9l-2.05 1.49.78 2.41a.49.49 0 0 1-.18.56.52.52 0 0 1-.3.11zm-2.34-2.7a.46.46 0 0 1 .29.1l1.1.79-.42-1.29a.47.47 0 0 1 .18-.55l1.1-.8h-1.36a.5.5 0 0 1-.48-.35l-.41-1.29-.42 1.29a.5.5 0 0 1-.48.35h-1.35l1.09.8a.47.47 0 0 1 .18.55l-.41 1.29 1.09-.79a.47.47 0 0 1 .31-.1z" fill="#263238"/></g><g><path d="M235.54 153.29l-5.69 22.07a3.33 3.33 0 0 0 1.15 3.24c1.62 1.27 8.45 3.47 8.45 3.47l-.93-24.87z" fill="#fff"/><path d="M239.45 182.57h-.15c-.29-.09-6.93-2.24-8.6-3.56a3.83 3.83 0 0 1-1.34-3.74l5.7-22.09a.51.51 0 0 1 .39-.36.47.47 0 0 1 .49.19l3 3.91a.48.48 0 0 1 .1.28l.93 24.87a.49.49 0 0 1-.2.42.47.47 0 0 1-.32.08zm-3.68-28.16l-5.44 21.08a2.83 2.83 0 0 0 1 2.72c1.14.89 5.39 2.42 7.61 3.16l-.89-24z" fill="#263238"/><path fill="#fff" d="M237.6 175.59l-3.7-1.62"/><path d="M237.6 176.09a.45.45 0 0 1-.2 0l-3.7-1.62a.49.49 0 0 1-.26-.66.5.5 0 0 1 .66-.26l3.7 1.62a.5.5 0 0 1-.2 1z" fill="#263238"/><path d="M264.23 153.29l5.7 22.07a3.35 3.35 0 0 1-1.16 3.24c-1.62 1.27-8.44 3.47-8.44 3.47l.92-24.87z" fill="#fff"/><path d="M260.33 182.57a.5.5 0 0 1-.31-.1.48.48 0 0 1-.19-.42l.92-24.87a.56.56 0 0 1 .1-.28l3-3.92a.51.51 0 0 1 .89.18l5.69 22.08a3.8 3.8 0 0 1-1.33 3.75c-1.67 1.32-8.32 3.47-8.6 3.56zm1.42-25.19l-.9 24c2.22-.74 6.47-2.27 7.61-3.16a2.82 2.82 0 0 0 1-2.74L264 154.41z" fill="#263238"/><path fill="#fff" d="M262.18 175.59l3.7-1.62"/><path d="M262.18 176.09a.5.5 0 0 1-.2-1l3.7-1.62a.5.5 0 1 1 .4.92l-3.7 1.62a.48.48 0 0 1-.2.08z" fill="#263238"/><path fill="#263238" d="M237.27 182.02l-2.3 64.51h4.85l9.48-50.28 9.61 50.17h4.85l-1.67-64.72-24.82.32z"/><path d="M239.82 247H235a.48.48 0 0 1-.36-.15.47.47 0 0 1-.14-.37l2.3-64.51a.5.5 0 0 1 .49-.48l24.82-.32a.51.51 0 0 1 .5.49l1.67 64.72a.54.54 0 0 1-.14.36.51.51 0 0 1-.36.15h-4.85a.49.49 0 0 1-.49-.4l-9.12-47.59-9 47.69a.49.49 0 0 1-.5.41zm-4.33-1h3.91l9.41-49.87a.5.5 0 0 1 .49-.41.49.49 0 0 1 .49.41l9.53 49.76h3.93l-1.65-63.71-23.85.3z" fill="#263238"/><path d="M235 246.53s-1.6 3.66-4.11 5.2-1.93 2.42-.77 2.71 9.45 0 9.45 0 .78-.1.78-2-.5-5.88-.5-5.88z" fill="#fff"/><path d="M233.14 255.06a20.21 20.21 0 0 1-3.17-.14c-1.07-.26-1.31-.84-1.36-1.16-.12-.76.53-1.56 2-2.45 2.34-1.44 3.89-4.94 3.91-5a.51.51 0 0 1 .46-.3h4.85a.5.5 0 0 1 .49.44c0 .16.51 4 .51 5.94 0 2.26-1 2.5-1.21 2.52-.62.09-3.87.15-6.48.15zm2.15-8a13.17 13.17 0 0 1-4.17 5.13c-1.26.78-1.55 1.29-1.52 1.45s.18.23.61.34a88.61 88.61 0 0 0 9.23 0c.08-.06.38-.37.38-1.53 0-1.5-.32-4.3-.44-5.38z" fill="#263238"/><path d="M263.88 246.53s1.6 3.66 4.11 5.2 1.93 2.42.77 2.71-9.46 0-9.46 0-.77-.1-.77-2 .5-5.88.5-5.88z" fill="#fff"/><path d="M265.7 255.07c-2.61 0-5.87-.11-6.42-.13-.24 0-1.25-.27-1.25-2.53 0-1.94.48-5.78.5-5.94a.5.5 0 0 1 .5-.44h4.85a.49.49 0 0 1 .45.3s1.57 3.54 3.92 5c1.45.89 2.1 1.69 2 2.45-.05.32-.29.9-1.35 1.16a20 20 0 0 1-3.2.13zm-6.3-1.13a88.81 88.81 0 0 0 9.24 0c.42-.11.59-.26.61-.34s-.27-.67-1.53-1.45c-2.21-1.36-3.71-4.2-4.16-5.13h-4.09c-.13 1.08-.44 3.88-.44 5.38-.03 1.17.29 1.48.37 1.54z" fill="#263238"/><path d="M245.5 148.12l-10 5.17 1.77 28.71s-.38 1.34 1.91 1.34 19 .38 20.5-.19 3.25-1.54 3.06-3.45 1.49-26.43 1.49-26.43l-7.81-4.6z" fill="#fff"/><path d="M251.85 184c-2.77 0-6.15 0-10-.09h-2.69a2.54 2.54 0 0 1-2.15-.78 1.38 1.38 0 0 1-.26-1.1l-1.72-28.66a.5.5 0 0 1 .26-.48l10-5.17a.47.47 0 0 1 .26 0l10.92.57a.62.62 0 0 1 .23.07l7.81 4.6a.49.49 0 0 1 .24.46c-.58 8.47-1.64 24.87-1.49 26.35.26 2.6-2.49 3.63-3.39 4-.7.12-3.57.23-8.02.23zm-14.1-1.83a.44.44 0 0 0 .08.34c.11.14.43.37 1.35.37h2.7c4.51.07 16.47.24 17.62-.19 2-.75 2.87-1.68 2.75-2.93-.19-1.84 1.26-23.24 1.46-26.21l-7.44-4.38-10.66-.56-9.55 5 1.71 28.39a1.11 1.11 0 0 1 0 .17z" fill="#263238"/><path fill="#fff" d="M246.46 141.8v4.59l4.02 3.64 4.41-3.25v-4.79l-8.43-.19z"/><path d="M250.48 150.53a.46.46 0 0 1-.33-.13l-4-3.64a.48.48 0 0 1-.17-.37v-4.59a.51.51 0 0 1 .15-.36.54.54 0 0 1 .36-.14l8.43.19a.5.5 0 0 1 .49.5v4.79a.52.52 0 0 1-.2.4l-4.41 3.25a.47.47 0 0 1-.32.1zm-3.48-4.36l3.56 3.22 3.87-2.87v-4l-7.43-.17z" fill="#263238"/><path d="M245 136.05s-1.91-2.11-2.29-.19 2.1 4.4 2.1 4.4z" fill="#fff"/><path d="M244.84 140.76a.5.5 0 0 1-.35-.14c-.11-.11-2.67-2.71-2.24-4.86a1.34 1.34 0 0 1 .89-1.17c1-.26 2.05.89 2.26 1.12a.49.49 0 0 1 .13.36l-.19 4.22a.5.5 0 0 1-.32.44.57.57 0 0 1-.18.03zm-1.39-5.21s-.13.13-.18.4c-.19.93.51 2.14 1.17 3l.12-2.74a2.37 2.37 0 0 0-1.11-.66z" fill="#263238"/><path d="M257.25 136.05s1.92-2.11 2.3-.19-2.11 4.4-2.11 4.4z" fill="#fff"/><path d="M257.44 140.76a.57.57 0 0 1-.18 0 .51.51 0 0 1-.32-.44l-.19-4.22a.53.53 0 0 1 .13-.36c.21-.23 1.31-1.38 2.27-1.12a1.34 1.34 0 0 1 .89 1.17c.43 2.15-2.13 4.75-2.24 4.86a.54.54 0 0 1-.36.11zm.32-4.52l.13 2.74c.66-.88 1.36-2.09 1.17-3-.05-.27-.14-.39-.18-.4s-.7.25-1.12.66z" fill="#263238"/><path d="M244.84 130.69s-.38 9.77.58 11.87 6.51 2.68 8.81 1.92 3.25-4 3.25-4l-.38-9.58a6.75 6.75 0 0 0-12.26-.19z" fill="#fff"/><path d="M251.65 145.31c-2.66 0-5.88-.77-6.69-2.54-1-2.15-.66-11.09-.62-12.1a.8.8 0 0 1 0-.15 7.25 7.25 0 0 1 13.21.2.68.68 0 0 1 0 .14l.38 9.58a.31.31 0 0 1 0 .16c0 .14-1.06 3.51-3.57 4.35a9.14 9.14 0 0 1-2.71.36zm-6.31-14.52c-.11 2.75-.21 9.94.53 11.57s6 2.37 8.2 1.64c1.84-.61 2.76-3.15 2.91-3.61l-.38-9.39a6.26 6.26 0 0 0-11.26-.19z" fill="#263238"/><path d="M257.34 136.82l-.24-5.94a6.75 6.75 0 0 0-12.26-.19s-.08 2.1-.07 4.56l.26.8.67.67.48-2.78 1-1.15.38-2.87h7.86v3.26l.76.76v2.88z" fill="#263238"/><path d="M257.34 137.32h-1.2a.51.51 0 0 1-.5-.5v-2.67l-.62-.62a.5.5 0 0 1-.14-.35v-2.76H248l-.32 2.44a.57.57 0 0 1-.11.25l-.88 1-.45 2.65a.52.52 0 0 1-.34.39.51.51 0 0 1-.51-.13l-.67-.67a.47.47 0 0 1-.12-.19l-.27-.8a.78.78 0 0 1 0-.16c0-2.44.07-4.56.07-4.58a.8.8 0 0 1 0-.15 7.25 7.25 0 0 1 13.21.2.68.68 0 0 1 0 .14l.24 5.94a.52.52 0 0 1-.14.36.52.52 0 0 1-.37.21zm-.7-1h.18l-.22-5.32a6.26 6.26 0 0 0-11.26-.19c0 .4-.08 2.26-.07 4.38l.13.39.29-1.7a.53.53 0 0 1 .11-.24l.86-1 .37-2.73a.5.5 0 0 1 .49-.44h7.86a.51.51 0 0 1 .5.5V133l.62.62a.5.5 0 0 1 .14.35z" fill="#263238"/><path fill="#263238" d="M248.38 151.95l1.53 3.45-3.07 23.36 4.41 5.17 3.26-5.55-3.45-23.18 2.3-3.25-2.49-3.64-2.49 3.64z"/><path d="M251.25 184.43a.49.49 0 0 1-.38-.17l-4.41-5.17a.5.5 0 0 1-.11-.39l3.05-23.23-1.48-3.32a.51.51 0 0 1 0-.48l2.49-3.64a.52.52 0 0 1 .83 0l2.49 3.64a.5.5 0 0 1 0 .57l-2.19 3.09 3.42 23a.47.47 0 0 1-.06.33l-3.26 5.56a.47.47 0 0 1-.39.24zm-3.88-5.82l3.8 4.46 2.82-4.79-3.43-23a.5.5 0 0 1 .09-.36l2.1-3-1.88-2.75L249 152l1.42 3.19a.63.63 0 0 1 0 .27z" fill="#263238"/><path fill="#fff" d="M250.48 150.03l-2.68 4.02-3.06-5.74 1.72-1.92 4.02 3.64z"/><path d="M247.8 154.55a.51.51 0 0 1-.42-.26l-3.06-5.75a.5.5 0 0 1 .07-.57l1.72-1.91a.51.51 0 0 1 .35-.17.53.53 0 0 1 .36.13l4 3.64a.5.5 0 0 1 .08.65l-2.68 4a.5.5 0 0 1-.42.24zm-2.46-6.17l2.51 4.7 2-3-3.33-3z" fill="#263238"/><path fill="#fff" d="M250.48 150.03l2.49 4.02 3.45-5.36-1.53-1.91-4.41 3.25z"/><path d="M253 154.55a.5.5 0 0 1-.42-.23l-2.49-4a.5.5 0 0 1 .13-.67l4.4-3.26a.5.5 0 0 1 .69.09l1.53 1.92a.48.48 0 0 1 0 .58l-3.45 5.36a.48.48 0 0 1-.39.21zm-1.82-4.39l1.83 3 2.83-4.4-1-1.26z" fill="#263238"/><path fill="#263238" d="M229.32 260.87l.89 2.75h2.9l-2.35 1.7.9 2.75-2.34-1.7-2.35 1.7.9-2.75-2.34-1.7h2.89l.9-2.75z"/><path d="M231.66 268.57a.55.55 0 0 1-.3-.09l-2-1.49-2 1.49a.53.53 0 0 1-.59 0 .51.51 0 0 1-.18-.56l.78-2.41-2.14-1.51a.52.52 0 0 1-.18-.56.51.51 0 0 1 .48-.34h2.53l.78-2.41a.52.52 0 0 1 .95 0l.78 2.41h2.54a.51.51 0 0 1 .47.34.49.49 0 0 1-.18.56l-2.05 1.49.78 2.41a.49.49 0 0 1-.47.65zm-2.34-2.7a.46.46 0 0 1 .29.1l1.1.79-.42-1.29a.47.47 0 0 1 .18-.55l1.1-.8h-1.36a.48.48 0 0 1-.47-.35l-.42-1.29-.42 1.29a.5.5 0 0 1-.48.35h-1.35l1.09.8a.49.49 0 0 1 .19.55l-.42 1.29L229 266a.47.47 0 0 1 .32-.13z" fill="#263238"/><path fill="#263238" d="M239.8 260.87l.89 2.75h2.9l-2.35 1.7.9 2.75-2.34-1.7-2.35 1.7.9-2.75-2.34-1.7h2.89l.9-2.75z"/><path d="M242.14 268.57a.53.53 0 0 1-.3-.09l-2-1.49-2.05 1.49a.53.53 0 0 1-.59 0 .49.49 0 0 1-.18-.56l.78-2.41-2-1.49a.5.5 0 0 1 .3-.9h2.53l.78-2.41a.52.52 0 0 1 1 0l.78 2.41h2.53a.5.5 0 0 1 .3.9l-2 1.49.78 2.41a.49.49 0 0 1-.18.56.52.52 0 0 1-.48.09zm-2.34-2.7a.46.46 0 0 1 .29.1l1.1.79-.42-1.29a.47.47 0 0 1 .18-.55l1.1-.8h-1.36a.5.5 0 0 1-.48-.35l-.41-1.29-.42 1.29a.5.5 0 0 1-.48.35h-1.36l1.1.8a.47.47 0 0 1 .18.55l-.41 1.29 1.09-.79a.47.47 0 0 1 .3-.1z" fill="#263238"/><path fill="#263238" d="M250.28 260.87l.89 2.75h2.89l-2.34 1.7.9 2.75-2.34-1.7-2.35 1.7.9-2.75-2.34-1.7h2.89l.9-2.75z"/><path d="M247.93 268.57a.52.52 0 0 1-.29-.09.49.49 0 0 1-.18-.56l.78-2.41-2.05-1.51a.5.5 0 0 1 .3-.9H249l.78-2.41a.49.49 0 0 1 .47-.34.5.5 0 0 1 .48.34l.78 2.41h2.53a.5.5 0 0 1 .3.9l-2.05 1.49.78 2.41a.51.51 0 0 1-.18.56.53.53 0 0 1-.59 0l-2-1.49-2 1.49a.53.53 0 0 1-.37.11zm.09-4.45l1.1.8a.47.47 0 0 1 .18.55l-.42 1.29L250 266a.5.5 0 0 1 .59 0l1.1.79-.42-1.29a.47.47 0 0 1 .18-.55l1.1-.8h-1.36a.5.5 0 0 1-.48-.35l-.42-1.29-.41 1.29a.5.5 0 0 1-.48.35z" fill="#263238"/><path fill="#263238" d="M260.75 260.87l.9 2.75h2.89l-2.34 1.7.9 2.75-2.35-1.7-2.34 1.7.9-2.75-2.35-1.7h2.9l.89-2.75z"/><path d="M263.1 268.57a.53.53 0 0 1-.3-.09l-2.05-1.48-2 1.49a.53.53 0 0 1-.59 0 .49.49 0 0 1-.18-.56l.78-2.41-2.09-1.52a.5.5 0 0 1 .29-.9h2.54l.78-2.41a.52.52 0 0 1 1 0l.78 2.41h2.53a.51.51 0 0 1 .48.34.52.52 0 0 1-.18.56l-2 1.49.78 2.41a.51.51 0 0 1-.18.56.52.52 0 0 1-.39.11zm-2.35-2.7a.47.47 0 0 1 .3.1l1.09.79-.41-1.29a.47.47 0 0 1 .18-.55l1.09-.8h-1.35a.5.5 0 0 1-.48-.35l-.42-1.29-.42 1.29a.48.48 0 0 1-.47.35h-1.36l1.1.8a.47.47 0 0 1 .18.55l-.42 1.29 1.1-.79a.46.46 0 0 1 .29-.1z" fill="#263238"/><path fill="#fff" d="M271.23 260.87l.9 2.75h2.89l-2.34 1.7.89 2.75-2.34-1.7-2.34 1.7.9-2.75-2.35-1.7h2.9l.89-2.75z"/><path d="M273.57 268.57a.52.52 0 0 1-.29-.09l-2-1.49-2.05 1.49a.51.51 0 0 1-.58 0 .49.49 0 0 1-.18-.56l.78-2.41-2.1-1.51a.5.5 0 0 1 .29-.9H270l.78-2.41a.52.52 0 0 1 .95 0l.78 2.41H275a.51.51 0 0 1 .48.34.52.52 0 0 1-.18.56l-2.05 1.49.78 2.41a.51.51 0 0 1-.18.56.53.53 0 0 1-.28.11zm-2.34-2.7a.47.47 0 0 1 .3.1l1.09.79-.42-1.29a.49.49 0 0 1 .19-.55l1.09-.8h-1.35a.5.5 0 0 1-.48-.35l-.42-1.29-.42 1.29a.48.48 0 0 1-.47.35H269l1.1.8a.49.49 0 0 1 .18.55l-.42 1.29 1.1-.79a.46.46 0 0 1 .27-.1z" fill="#263238"/></g><g><path d="M183.62 129.78s-4.77-.12-6.16 3.4-4.14 13.19-3.77 14.19 10.56 3.15 14.45 1.89a15.3 15.3 0 0 0 5.78-3.14s-2.51-8.3-3.51-11.56-3.41-5.28-6.79-4.78z" fill="#263238"/><path d="M184.88 150.13c-4.67 0-11.21-1.39-11.65-2.58-.5-1.34 2.68-11.78 3.77-14.56 1.43-3.65 6.08-3.71 6.59-3.71 3.43-.49 6.15 1.43 7.29 5.13 1 3.27 3.52 11.56 3.52 11.56a.49.49 0 0 1-.12.5 15.61 15.61 0 0 1-6 3.26 11.65 11.65 0 0 1-3.4.4zm-1.31-19.85c-.42 0-4.46.08-5.64 3.08-1.56 4-4 12.9-3.76 13.85.72.77 10.15 2.76 13.82 1.57a15.81 15.81 0 0 0 5.36-2.82c-.46-1.52-2.53-8.36-3.42-11.25-1-3.26-3.28-4.87-6.24-4.43h-.12z" fill="#263238"/><path d="M179.6 145.74s.75 4 .25 5.28-6.28 2.89-6.28 2.89l18.93.28-6.16-2.86-.23-4.47z" fill="#fff"/><path d="M192.5 154.69l-18.94-.28a.51.51 0 0 1-.49-.44.49.49 0 0 1 .36-.54c2.68-.76 5.71-2 6-2.6.32-.81 0-3.5-.28-5a.51.51 0 0 1 .13-.44.49.49 0 0 1 .44-.14l6.51 1.11a.5.5 0 0 1 .41.47l.23 4.17 5.88 2.73a.5.5 0 0 1 .28.57.49.49 0 0 1-.53.39zm-15.91-1.24l13.58.2-4-1.87a.52.52 0 0 1-.29-.43l-.21-4.07-5.42-.93c.2 1.27.53 3.8.11 4.85-.36.8-2.11 1.63-3.77 2.25z" fill="#263238"/><path d="M178 137.45s-.25 5.28.25 7.29a6 6 0 0 0 6.91 3.64c3.27-.88 3.89-5.15 3.89-6.28s-.5-7.29-.5-7.29l-3.39-2.76s-4.68 4.52-7.16 5.4z" fill="#fff"/><path d="M183.76 149.06a6.37 6.37 0 0 1-3.27-.93 5.8 5.8 0 0 1-2.76-3.27c-.51-2.06-.27-7.22-.26-7.44a.48.48 0 0 1 .33-.44c2.38-.84 6.93-5.25 7-5.29a.49.49 0 0 1 .66 0l3.4 2.76a.52.52 0 0 1 .18.35c0 .25.5 6.19.5 7.33 0 1.45-.78 5.82-4.26 6.76a5.83 5.83 0 0 1-1.52.17zm-5.31-11.27a35.85 35.85 0 0 0 .25 6.82 4.91 4.91 0 0 0 2.29 2.66 5.24 5.24 0 0 0 4 .63c2.93-.79 3.52-4.78 3.52-5.8s-.39-5.95-.48-7l-2.89-2.35c-1.05.96-4.45 4.08-6.69 5.04z" fill="#263238"/><path d="M174.08 205.59a56.31 56.31 0 0 1 .44 9.73c-.11 6.59-2.12 9.39-.33 15.88s4 14.2 4 15.76-4.36 5.82-3.35 6.82 3 .67 4.36-.89 1.68-5.82 1.68-7.38-.9-10.74 0-15.66.67-12.86.67-16.77.11-7.38.11-7.38z" fill="#fff"/><path d="M176.36 254.86a2.59 2.59 0 0 1-1.85-.72c-.86-.86.26-2.46 1.56-4.3a9.23 9.23 0 0 0 1.64-2.88c0-1.23-1.64-7.12-3.08-12.32l-.92-3.31a21 21 0 0 1-.28-10.06 41.51 41.51 0 0 0 .59-6 56.39 56.39 0 0 0-.44-9.63.54.54 0 0 1 .12-.42.49.49 0 0 1 .38-.17l7.61.11a.5.5 0 0 1 .49.52s-.11 3.5-.11 7.36v2c0 4.23.08 10.63-.69 14.85-.69 3.78-.3 10.12-.09 13.52 0 1 .1 1.7.1 2 0 1.56-.32 6-1.8 7.7a4.46 4.46 0 0 1-3.12 1.64zm-1.7-48.76a66.06 66.06 0 0 1 .36 9.23 43.48 43.48 0 0 1-.6 6.1 20.2 20.2 0 0 0 .25 9.63l.92 3.31c1.61 5.77 3.12 11.22 3.12 12.59 0 .86-.84 2.06-1.82 3.45-.65.92-1.85 2.64-1.67 3a1.62 1.62 0 0 0 1.22.42 3.45 3.45 0 0 0 2.4-1.29c1.18-1.37 1.56-5.34 1.56-7.05 0-.34-.05-1-.1-2-.21-3.45-.6-9.87.11-13.77.75-4.13.7-10.47.67-14.66v-2c0-3 .07-5.78.1-6.89z" fill="#263238"/><path d="M179.22 252.89a7.91 7.91 0 0 0 1.31-3.52 5.29 5.29 0 0 1-.86.72c-1.13.72-2.63-.25-2.87-.42-1.17 1.68-2.55 3.5-1.94 4.11 1.01 1.01 3.02.67 4.36-.89z" fill="#fff"/><path d="M176.36 254.86a2.59 2.59 0 0 1-1.85-.72c-.86-.86.26-2.46 1.56-4.3l.32-.45a.49.49 0 0 1 .69-.13c.15.1 1.45 1 2.32.41a4.88 4.88 0 0 0 .78-.66.5.5 0 0 1 .84.45 8.17 8.17 0 0 1-1.42 3.75 4.46 4.46 0 0 1-3.12 1.64zm.58-4.52l-.05.07c-.65.92-1.86 2.64-1.67 3a1.62 1.62 0 0 0 1.22.42 3.45 3.45 0 0 0 2.4-1.29 5.2 5.2 0 0 0 .89-1.93 3.14 3.14 0 0 1-2.79-.27zm2.28 2.55z" fill="#263238"/><path d="M190.71 205.59a56.76 56.76 0 0 0-.45 9.73c.11 6.59 2.12 9.39.33 15.88s-4 14.2-4 15.76 4.36 5.82 3.35 6.82-3 .67-4.36-.89-1.67-5.82-1.67-7.38.89-10.74 0-15.66-.68-12.86-.68-16.77-.11-7.38-.11-7.38z" fill="#fff"/><path d="M188.43 254.86h-.13a4.48 4.48 0 0 1-3.12-1.64c-1.47-1.72-1.79-6.14-1.79-7.7 0-.35 0-1.08.1-2 .2-3.4.59-9.74-.1-13.52-.76-4.22-.72-10.62-.69-14.85v-2c0-3.86-.11-7.33-.11-7.36a.55.55 0 0 1 .14-.37.51.51 0 0 1 .36-.15l7.6-.11a.57.57 0 0 1 .39.17.53.53 0 0 1 .11.42 56.39 56.39 0 0 0-.44 9.63 41.51 41.51 0 0 0 .59 6 21 21 0 0 1-.27 10.06l-.92 3.3c-1.45 5.2-3.09 11.1-3.09 12.33a9.23 9.23 0 0 0 1.64 2.88c1.3 1.84 2.42 3.44 1.57 4.3a2.61 2.61 0 0 1-1.84.61zm-4.81-48.67c0 1.11.09 3.88.09 6.89v2c0 4.19-.07 10.53.68 14.66.71 3.9.32 10.32.11 13.77-.06.94-.1 1.64-.1 2 0 1.71.38 5.68 1.55 7.05a3.47 3.47 0 0 0 2.4 1.29 1.66 1.66 0 0 0 1.23-.42c.18-.38-1-2.1-1.68-3-1-1.39-1.82-2.59-1.82-3.45 0-1.37 1.52-6.83 3.13-12.6l.91-3.3a20.08 20.08 0 0 0 .25-9.63 43.48 43.48 0 0 1-.6-6.1 63.76 63.76 0 0 1 .37-9.23z" fill="#263238"/><path d="M185.56 252.89a8.16 8.16 0 0 1-1.31-3.52 5.33 5.33 0 0 0 .87.72c1.12.72 2.62-.25 2.87-.42 1.17 1.68 2.55 3.5 1.93 4.11-1 1.01-3.02.67-4.36-.89z" fill="#fff"/><path d="M188.43 254.86h-.13a4.48 4.48 0 0 1-3.12-1.64 8.17 8.17 0 0 1-1.42-3.75.51.51 0 0 1 .26-.54.5.5 0 0 1 .58.09 6 6 0 0 0 .78.66c.88.56 2.18-.31 2.32-.41a.5.5 0 0 1 .7.13l.31.45c1.3 1.84 2.42 3.44 1.57 4.3a2.61 2.61 0 0 1-1.85.71zm-2.49-2.3a3.47 3.47 0 0 0 2.4 1.29 1.66 1.66 0 0 0 1.23-.42c.18-.38-1-2.1-1.68-3v-.07a3.14 3.14 0 0 1-2.79.29 5.2 5.2 0 0 0 .89 1.93z" fill="#263238"/><path d="M173.11 179s-4.14 7.53-3.4 14.52a87.26 87.26 0 0 0 2.65 13.48H192a96.3 96.3 0 0 0 2.23-15.27 37.69 37.69 0 0 0-1.62-12.73z" fill="#263238"/><path d="M192 207.48h-19.64a.51.51 0 0 1-.48-.36 86.81 86.81 0 0 1-2.66-13.55c-.75-7.07 3.28-14.51 3.45-14.82a.49.49 0 0 1 .44-.26h19.5a.51.51 0 0 1 .47.34 37.76 37.76 0 0 1 1.62 12.9 97.66 97.66 0 0 1-2.24 15.36.49.49 0 0 1-.46.39zm-19.23-1h18.83a94.42 94.42 0 0 0 2.13-14.79 38 38 0 0 0-1.46-12.2h-18.86c-.7 1.37-3.84 7.93-3.2 14a86.93 86.93 0 0 0 2.53 12.99z" fill="#263238"/><path fill="#fff" d="M173.1 178.99h19.51l-2.12-25.44h-14.42l-2.97 25.44z"/><path d="M192.61 179.49h-19.5a.53.53 0 0 1-.38-.16.52.52 0 0 1-.12-.4l3-25.44a.5.5 0 0 1 .49-.44h14.42a.5.5 0 0 1 .5.46l2.09 25.49a.5.5 0 0 1-.5.54zm-18.94-1h18.4l-2-24.44h-13.55z" fill="#263238"/><path d="M178.09 152.28s2 19.93 1.59 23.32-5.41 17.6-5.41 17.6l-7.27-1.81s5.3-17.49 5.51-18.76-4.35-17.38-4.35-17.38z" fill="#fff"/><path d="M174.27 193.7h-.12l-7.31-1.8a.49.49 0 0 1-.32-.24.53.53 0 0 1 0-.39c1.83-6 5.33-17.72 5.5-18.7s-2.61-11-4.34-17.17a.5.5 0 0 1 .34-.61l10-3a.54.54 0 0 1 .43.06.51.51 0 0 1 .21.37c.09.82 2 20 1.59 23.43s-5.22 17.12-5.43 17.7a.49.49 0 0 1-.55.35zm-6.68-2.7l6.41 1.6c.83-2.39 4.86-14.09 5.23-17.06s-1.2-19.26-1.53-22.61l-8.91 2.66c1 3.53 4.43 15.87 4.22 17.12s-4.53 15.39-5.42 18.29z" fill="#263238"/><path d="M188.32 152.28s-2 19.93-1.59 23.32 5.41 17.6 5.41 17.6l7.31-1.81s-5.3-17.49-5.51-18.76 4.35-17.38 4.35-17.38z" fill="#fff"/><path d="M192.14 193.7a.49.49 0 0 1-.47-.34c-.21-.58-5-14.29-5.43-17.7s1.5-22.61 1.58-23.43a.55.55 0 0 1 .22-.37.52.52 0 0 1 .42-.06l10 3a.5.5 0 0 1 .34.61c-1.73 6.13-4.44 16.2-4.34 17.17s3.67 12.66 5.5 18.7a.49.49 0 0 1-.36.63l-7.31 1.8zm-3.38-40.77c-.33 3.35-1.9 19.64-1.53 22.61s4.4 14.67 5.23 17.06l6.36-1.56c-.89-2.94-5.18-17.14-5.37-18.33s3.22-13.59 4.22-17.12z" fill="#263238"/><path d="M168.12 155.25l-6.87 18.92a2.21 2.21 0 0 0 1.62 2.91 2.22 2.22 0 0 0 2.35-1l5.87-10z" fill="#fff"/><path d="M163.32 177.62a3.64 3.64 0 0 1-.56-.05 2.74 2.74 0 0 1-1.8-1.33 2.7 2.7 0 0 1-.18-2.24l6.87-18.92a.47.47 0 0 1 .49-.33.51.51 0 0 1 .47.37l3 10.81a.46.46 0 0 1 0 .38l-5.87 10a2.71 2.71 0 0 1-2.42 1.31zm4.74-20.72l-6.34 17.44a1.7 1.7 0 0 0 .11 1.41 1.71 1.71 0 0 0 3 0l5.76-9.8z" fill="#263238"/><path d="M163.83 172.74l13.67 2.38-.47 2.71-14.15.79a3 3 0 0 1-1.63-4.45" fill="#fff"/><path d="M162.88 179.12a.41.41 0 0 1-.16 0 3.88 3.88 0 0 1-2.19-2 3.74 3.74 0 0 1 .27-3.16.51.51 0 0 1 .67-.23.5.5 0 0 1 .23.67 2.81 2.81 0 0 0-.25 2.32 2.87 2.87 0 0 0 1.51 1.41l13.64-.77.32-1.82-13.18-2.3a.5.5 0 0 1-.4-.58.49.49 0 0 1 .58-.4l13.67 2.38a.47.47 0 0 1 .32.21.48.48 0 0 1 .09.37l-.48 2.7a.51.51 0 0 1-.46.42l-14.16.79z" fill="#263238"/><path d="M177.5 175.12s3.82-1.27 4.77-1.43 4.93 2.39 4.46 2.86-2.07-.79-2.87-.79-1.9 1.11-2.7 1.43a5.63 5.63 0 0 1-2.54-.16l-1.27-.16z" fill="#fff"/><path d="M180.42 177.8a8.06 8.06 0 0 1-1.93-.29l-1.21-.14a.49.49 0 0 1-.43-.54l.16-1.75a.48.48 0 0 1 .34-.43c.15-.05 3.86-1.29 4.84-1.45s4.48 1.92 5 2.88a.68.68 0 0 1-.09.83c-.52.52-1.35.13-2.14-.24a3.54 3.54 0 0 0-1.08-.41 3.64 3.64 0 0 0-1.37.72 6.35 6.35 0 0 1-1.14.67 2.45 2.45 0 0 1-.95.15zm-2.53-1.36l.79.1a5.31 5.31 0 0 0 2.3.19 6.19 6.19 0 0 0 .94-.58 2.55 2.55 0 0 1 3.45-.39l.2.09a9.75 9.75 0 0 0-3.21-1.66c-.69.11-3.16.9-4.39 1.31z" fill="#263238"/><path d="M198.4 155.25l6.88 18.92a2.21 2.21 0 0 1-1.62 2.91 2.22 2.22 0 0 1-2.35-1l-5.87-10z" fill="#fff"/><path d="M203.21 177.62a2.69 2.69 0 0 1-2.33-1.33l-5.87-10a.5.5 0 0 1-.06-.38l3-10.81a.51.51 0 0 1 .46-.37.46.46 0 0 1 .49.33l6.85 18.94a2.71 2.71 0 0 1-2 3.57 3.64 3.64 0 0 1-.54.05zM196 166l5.77 9.8a1.7 1.7 0 0 0 1.82.8 1.67 1.67 0 0 0 1.13-.84 1.7 1.7 0 0 0 .12-1.41l-6.34-17.44z" fill="#263238"/><path d="M202.84 172.71l-13.85 1 .21 2.74 14 2.18a3 3 0 0 0 2-4.27" fill="#fff"/><path d="M203.21 179.16h-.08l-14-2.19a.5.5 0 0 1-.43-.45l-.21-2.74a.51.51 0 0 1 .47-.54l13.84-1a.49.49 0 0 1 .53.46.49.49 0 0 1-.46.53l-13.34 1 .14 1.85 13.51 2.1a2.88 2.88 0 0 0 1.63-1.24 2.76 2.76 0 0 0 0-2.34.5.5 0 0 1 .3-.64.49.49 0 0 1 .64.29 3.74 3.74 0 0 1 0 3.17 3.93 3.93 0 0 1-2.37 1.76z" fill="#263238"/><path d="M189 173.74s-3.67-1.64-4.6-1.89-5.14 1.89-4.71 2.41 2.13-.59 2.92-.51 1.79 1.3 2.55 1.69a5.6 5.6 0 0 0 2.55.09h1.28z" fill="#fff"/><path d="M186.38 176.14a3.26 3.26 0 0 1-1.46-.26 6.27 6.27 0 0 1-1.07-.78 3.48 3.48 0 0 0-1.3-.85 3.79 3.79 0 0 0-1.11.3c-.83.29-1.68.6-2.15 0a.69.69 0 0 1 0-.83c.59-.92 4.18-2.66 5.24-2.38s4.53 1.85 4.68 1.92a.5.5 0 0 1 .29.46v1.75a.51.51 0 0 1-.49.5h-1.28a7.73 7.73 0 0 1-1.35.17zm-3.86-2.89h.13a4 4 0 0 1 1.85 1.08 5.4 5.4 0 0 0 .88.67 5.14 5.14 0 0 0 2.23 0h.87v-.94c-1.18-.52-3.56-1.56-4.23-1.74a9.15 9.15 0 0 0-3.36 1.35l.2-.07a4.42 4.42 0 0 1 1.43-.35z" fill="#263238"/><path fill="#263238" d="M161.88 260.87l.9 2.75h2.89l-2.34 1.7.89 2.75-2.34-1.7-2.34 1.7.9-2.75-2.35-1.7h2.9l.89-2.75z"/><path d="M164.23 268.57a.53.53 0 0 1-.3-.09l-2.05-1.48-2 1.49a.53.53 0 0 1-.59 0 .49.49 0 0 1-.18-.56l.78-2.41-2-1.49a.5.5 0 0 1 .29-.9h2.54l.78-2.41a.52.52 0 0 1 1 0l.78 2.41h2.53a.5.5 0 0 1 .3.9l-2.05 1.49.78 2.41a.51.51 0 0 1-.18.56.52.52 0 0 1-.43.08zm-2.35-2.7a.47.47 0 0 1 .3.1l1.09.79-.41-1.29a.47.47 0 0 1 .18-.55l1.09-.8h-1.35a.5.5 0 0 1-.48-.35l-.42-1.29-.42 1.29a.48.48 0 0 1-.47.35h-1.36l1.1.8a.47.47 0 0 1 .18.55l-.42 1.29 1.1-.79a.46.46 0 0 1 .29-.1z" fill="#263238"/><path fill="#263238" d="M172.36 260.87l.9 2.75h2.89l-2.34 1.7.89 2.75-2.34-1.7-2.34 1.7.89-2.75-2.34-1.7h2.9l.89-2.75z"/><path d="M174.7 268.57a.52.52 0 0 1-.29-.09l-2-1.49-2.05 1.49a.51.51 0 0 1-.58 0 .49.49 0 0 1-.18-.56l.78-2.41-2.1-1.51a.49.49 0 0 1-.18-.56.51.51 0 0 1 .47-.34h2.53l.79-2.41a.52.52 0 0 1 1 0l.78 2.41h2.53a.51.51 0 0 1 .48.34.52.52 0 0 1-.18.56l-2 1.49.78 2.41a.51.51 0 0 1-.18.56.53.53 0 0 1-.4.11zm-4.59-4.45l1.1.8a.49.49 0 0 1 .18.55l-.42 1.29 1.1-.79a.49.49 0 0 1 .59 0l1.09.79-.42-1.29a.49.49 0 0 1 .19-.55l1.09-.8h-1.35a.5.5 0 0 1-.48-.35l-.42-1.29-.42 1.29a.48.48 0 0 1-.47.35z" fill="#263238"/><path fill="#263238" d="M182.84 260.87l.9 2.75h2.89l-2.34 1.7.89 2.75-2.34-1.7-2.34 1.7.89-2.75-2.34-1.7h2.9l.89-2.75z"/><path d="M185.18 268.57a.52.52 0 0 1-.29-.09l-2-1.49-2.05 1.49a.5.5 0 0 1-.77-.56l.79-2.41-2.1-1.51a.49.49 0 0 1-.18-.56.5.5 0 0 1 .47-.34h2.53l.79-2.41a.52.52 0 0 1 .95 0l.78 2.41h2.53a.49.49 0 0 1 .29.9l-2 1.49.78 2.41a.51.51 0 0 1-.18.56.53.53 0 0 1-.34.11zm-2.34-2.7a.49.49 0 0 1 .3.1l1.09.79-.42-1.29a.49.49 0 0 1 .19-.55l1.09-.8h-1.35a.5.5 0 0 1-.48-.35l-.42-1.29-.42 1.29a.49.49 0 0 1-.47.35h-1.36l1.1.8a.49.49 0 0 1 .18.55l-.42 1.29 1.1-.79a.46.46 0 0 1 .29-.1z" fill="#263238"/><path fill="#fff" d="M193.32 260.87l.9 2.75h2.89l-2.34 1.7.89 2.75-2.34-1.7-2.34 1.7.89-2.75-2.34-1.7h2.9l.89-2.75z"/><path d="M195.66 268.57a.52.52 0 0 1-.29-.09l-2.05-1.48-2 1.49a.5.5 0 0 1-.77-.56l.79-2.41-2-1.49a.5.5 0 0 1 .29-.9h2.53l.79-2.41a.52.52 0 0 1 1 0l.78 2.41h2.53a.5.5 0 0 1 .29.9l-2 1.49.78 2.41a.51.51 0 0 1-.18.56.53.53 0 0 1-.49.08zm-4.59-4.45l1.1.8a.49.49 0 0 1 .18.55l-.42 1.29L193 266a.48.48 0 0 1 .58 0l1.1.79-.42-1.29a.5.5 0 0 1 .18-.55l1.1-.8h-1.35a.5.5 0 0 1-.48-.35l-.42-1.29-.42 1.29a.5.5 0 0 1-.47.35z" fill="#263238"/><path fill="#fff" d="M203.8 260.87l.89 2.75h2.9l-2.34 1.7.89 2.75-2.34-1.7-2.34 1.7.89-2.75-2.34-1.7h2.9l.89-2.75z"/><path d="M206.14 268.57a.52.52 0 0 1-.29-.09l-2-1.49-2.05 1.49a.5.5 0 0 1-.77-.56l.78-2.41-2-1.49a.5.5 0 0 1 .29-.9h2.53l.78-2.41a.53.53 0 0 1 1 0l.78 2.41h2.53a.5.5 0 0 1 .29.9l-2 1.49.79 2.41a.52.52 0 0 1-.18.56.55.55 0 0 1-.48.09zm-2.34-2.7a.45.45 0 0 1 .29.1l1.1.79-.42-1.29a.49.49 0 0 1 .18-.55l1.1-.8h-1.36a.5.5 0 0 1-.47-.35l-.42-1.29-.42 1.29a.5.5 0 0 1-.47.35h-1.36l1.1.8a.49.49 0 0 1 .18.55l-.42 1.29 1.1-.79a.45.45 0 0 1 .29-.1z" fill="#263238"/></g></svg>