<svg xmlns="http://www.w3.org/2000/svg" viewBox="0 0 500 500"><path fill="#ebebeb" d="M0 382.4h500v.25H0z"/><path fill="#ebebeb" d="M416.78 398.49h33.12v.25h-33.12z"/><path fill="#ebebeb" d="M322.53 401.21h8.69v.25h-8.69z"/><path fill="#ebebeb" d="M396.59 389.21h19.19v.25h-19.19z"/><path fill="#ebebeb" d="M52.46 390.89h43.19v.25H52.46z"/><path fill="#ebebeb" d="M104.56 390.89h6.33v.25h-6.33z"/><path fill="#ebebeb" d="M131.47 395.11h93.68v.25h-93.68z"/><path d="M237 337.8H43.91a5.71 5.71 0 0 1-5.7-5.71V60.66a5.71 5.71 0 0 1 5.7-5.66H237a5.71 5.71 0 0 1 5.71 5.71v271.38a5.71 5.71 0 0 1-5.71 5.71zM43.91 55.2a5.46 5.46 0 0 0-5.45 5.46v271.43a5.46 5.46 0 0 0 5.45 5.46H237a5.47 5.47 0 0 0 5.46-5.46V60.66A5.47 5.47 0 0 0 237 55.2z" fill="#ebebeb"/><path d="M453.31 337.8h-193.1a5.72 5.72 0 0 1-5.71-5.71V60.66a5.72 5.72 0 0 1 5.71-5.66h193.1a5.71 5.71 0 0 1 5.69 5.66v271.43a5.71 5.71 0 0 1-5.69 5.71zM260.21 55.2a5.47 5.47 0 0 0-5.46 5.46v271.43a5.47 5.47 0 0 0 5.46 5.46h193.1a5.47 5.47 0 0 0 5.46-5.46V60.66a5.47 5.47 0 0 0-5.46-5.46z" fill="#ebebeb"/><path d="M75.66 290.59h71.2a12.52 12.52 0 0 1 12.52 12.52v64a12.52 12.52 0 0 1-12.52 12.52h-71.2v-89z" fill="#f0f0f0"/><rect x="62.55" y="290.59" width="26.22" height="89" rx="12.52" fill="#f5f5f5"/><path fill="#f0f0f0" d="M178.12 379.59H85.19v-56.17h92.93z"/><path d="M77.56 382.4h167.49a2.57 2.57 0 0 0 2.56-2.57v-.24H146.9l-71.9.24a2.57 2.57 0 0 0 2.56 2.57z" fill="#e0e0e0"/><path d="M150.92 253.67h86.46a15.73 15.73 0 0 1 15.93 17.46l-5.7 65H126.23l5.69-65a19.44 19.44 0 0 1 19-17.46z" fill="#e0e0e0"/><path d="M137.26 253.67h88.15a15 15 0 0 1 15.16 16.62l-5.77 65.83H113.41l5.77-65.83a18.5 18.5 0 0 1 18.08-16.62z" fill="#f5f5f5"/><path d="M92.64 318.29h73.61a7.88 7.88 0 0 1 7.88 7.88v7.11a7.88 7.88 0 0 1-7.88 7.89H92.64a11.44 11.44 0 0 1-11.44-11.44 11.44 11.44 0 0 1 11.44-11.44z" fill="#e0e0e0"/><path d="M178.53 290.59h71.2a12.52 12.52 0 0 1 12.52 12.52v64a12.52 12.52 0 0 1-12.52 12.52h-71.2v-89z" fill="#f0f0f0"/><rect x="165.42" y="290.59" width="26.22" height="89" rx="12.52" fill="#f5f5f5"/><path fill="#f0f0f0" d="M306.56 241.67h68.45V382.4h-68.45z"/><path fill="#e6e6e6" d="M316.8 252.63v118.81h-1.58V252.63z"/><path fill="#e6e6e6" d="M315.22 252.63h49.7v2h-49.7z"/><path fill="#f0f0f0" d="M376.59 241.67h68.45V382.4h-68.45z"/><path fill="#e0e0e0" d="M454.11 382.4h-9.06V241.67h9.06z"/><path fill="#e6e6e6" d="M386.83 252.63v118.81h-1.58V252.63z"/><path fill="#e6e6e6" d="M376.6 243.27V382.4h-1.58V243.27z"/><path fill="#e6e6e6" d="M385.25 252.63h49.7v2h-49.7z"/><path fill="#e0e0e0" d="M368.61 272.8h3.4v31.1h-3.4z"/><path fill="#e0e0e0" d="M379.59 272.8h3.4v31.1h-3.4z"/><path fill="#e0e0e0" d="M77.09 94.92h349.02v124.49H77.09z"/><path fill="#f0f0f0" d="M73.89 94.92h349.02v124.49H73.89z"/><path fill="#fafafa" d="M412.44 105.39v103.55H84.36V105.39z"/><path fill="#fff" d="M137.62 208.94l21.74-103.55h47.99l-21.74 103.55h-47.99z"/><path fill="#fff" d="M205.86 208.94l21.74-103.55h24l-21.75 103.55h-23.99z"/><path fill="#fff" d="M352.38 208.94l21.74-103.55h24l-21.75 103.55h-23.99z"/><g><ellipse cx="250" cy="416.24" rx="193.89" ry="11.32" fill="#f5f5f5"/></g><g><path d="M166 115.64c2.52-5.77-19.8-11-26.55 6.78-6.12 16.13-16.28 20.25-11.5 31.42 5.17 12.09 34.42 13.54 47.12.14 10.3-10.87-.88-15.45.56-25.67s-1.58-13.55-9.63-12.67z" fill="#263238"/><path d="M125.34 150.26c-1.16-6.3 1.18-8.9 4.14-12.19a29.53 29.53 0 0 0 7.89-14.77 15.06 15.06 0 0 1 12.53-12c6.6-1.22 13.59.94 15.44 3.68a2.35 2.35 0 0 1 .1 2.71l-.84-.54a1.34 1.34 0 0 0-.09-1.61c-1.64-2.44-8.3-4.39-14.42-3.25-4.37.81-10 3.41-11.74 11.23a30.4 30.4 0 0 1-8.13 15.21c-2.88 3.2-5 5.52-3.89 11.34z" fill="#263238"/><path d="M111.59 145.47l-.62-2a8.18 8.18 0 0 0-2.25-3.55l-2-1.82a3.69 3.69 0 0 0-4.71-.25l-2.14 1.6a3.69 3.69 0 0 0-.72 5.2l1.38 1.8s3.24 5.48 7.93 7.38l1.08-.92a7 7 0 0 0 2.05-7.44z" fill="#ffc3bd"/><path d="M150.46 180.19l-.64.49-.52.38-1 .7c-.67.44-1.35.85-2 1.25a43.44 43.44 0 0 1-4.2 2.12 38.58 38.58 0 0 1-9.25 2.76 31.8 31.8 0 0 1-10.17.06 26.89 26.89 0 0 1-5.06-1.31c-.41-.13-.82-.3-1.22-.47l-.6-.25-.3-.13-.33-.14-.42-.2a10.34 10.34 0 0 1-2.39-1.69 12.61 12.61 0 0 1-1.41-1.55 20.81 20.81 0 0 1-2.72-5c-.6-1.48-1.06-2.9-1.47-4.29a79.71 79.71 0 0 1-1.81-8.17 107.52 107.52 0 0 1-1.53-16.1 4 4 0 0 1 7.85-1.46v.11c1.74 4.79 3.41 9.7 5.17 14.36.91 2.32 1.79 4.63 2.79 6.73.48 1.05 1 2.05 1.49 2.92a7.13 7.13 0 0 0 1.27 1.73l-.07-.14a2.81 2.81 0 0 0-.8-.58l-.19-.1c-.06 0-.18-.07-.11-.05h.16l.31.08a4.8 4.8 0 0 0 .63.15 16.89 16.89 0 0 0 2.56.31 20 20 0 0 0 5.35-.56 30.57 30.57 0 0 0 5.58-2c.93-.42 1.85-.91 2.75-1.4.45-.25.89-.52 1.31-.78l1-.64.78-.49a8.05 8.05 0 0 1 9.14 13.24z" fill="#ffc3bd"/><path d="M168 411.88c6.33-2.09 11.66-6.37 10.59-13.88-.47-3.22 9.86-4.48 9.86-4.48-1.17 10.23.11 12 1.34 14.31s1.16 5.14-1 5.39c-2.56.31-3.13 0-6.31.45-3.72.49-6.13 2.43-13.56 2.43-4.01 0-2.92-3.56-.92-4.22z" fill="#c0a5b4"/><path d="M187.25 302.61c.73-51.24-4-79.17-4-79.17l-37.91 1.89s5.61 46.88 15.57 81.41c2.66 18.53 8.65 49.87 12.8 70.92a91.05 91.05 0 0 0 18.17-3.44c1.45-18.49 1.71-45.22-4.63-71.61z" fill="#c0a5b4"/><path d="M188.07 398.54s1.48-9.68 2.48-24.32a68 68 0 0 1-15.55 3.44c2.16 12.78 3.7 20.92 3.7 20.92a13.68 13.68 0 0 0 9.37-.04z" fill="#ffc3bd"/><path d="M171.64 371.53c.33 1.76 1.25 6.17 2.16 7.72a.68.68 0 0 0 .5.33c7.07.89 14.13-.53 17-1.81a.62.62 0 0 0 .35-.36c.8-2.12 1.09-6.58 1.18-8.46a.67.67 0 0 0-.8-.69 170.06 170.06 0 0 1-19.82 2.48.66.66 0 0 0-.57.79z" fill="#263238"/><path d="M145.84 165.08c-5.62 1-14.19 5.75-14.19 5.75s-4.51 10.8.89 18.58c5.32 1.26 8 .23 8 .23z" fill="#263238"/><path d="M132.54 189.41c5.32 1.26 8 .23 8 .23l-.19-14.57c-3.61 4.86-6.62 9.68-7.81 14.34z" opacity=".2"/><path d="M187.05 272.38c-4.24-10.37-8.8-18.91-10.55-26.71-3 21.21-.64 40.72 10.77 54.7.13-10.32.02-19.66-.22-27.99z" opacity=".2"/><path d="M245 353.7l-15.13 10.76c-12.35-16.09-30.87-40.67-35.35-51.37-11.38-27.15-34.26-87-34.26-87l29.7-6.9s18.74 17.4 30.83 83.06c10.12 14.38 18.64 35.54 24.21 51.45z" fill="#c0a5b4"/><path d="M244.13 404.7c3.77-7.37 3.82-15.49-.25-21.89-1.75-2.74 7.14-8.15 7.14-8.15 3.14 9.81 5.7 10.38 7.88 11.9s2.4 4.79.56 5.9a15.23 15.23 0 0 0-5 4.75c-2.28 3-3.56 7.12-6.83 9.69-2.09 1.63-5.16 1.03-3.5-2.2z" fill="#c0a5b4"/><path d="M252.67 379.16s-2.61-9.18-7.73-22.93a68.85 68.85 0 0 1-12.75 9.54c7.23 10.76 12.52 18.49 12.52 18.49a17.37 17.37 0 0 0 7.96-5.1z" fill="#ffc3bd"/><path d="M226.6 361.57c1 1.46 3.68 5.11 5.15 6.14a.7.7 0 0 0 .6.1c6.8-2.1 12.65-6.31 14.79-8.68a.6.6 0 0 0 .16-.48c-.14-2.25-1.72-6.44-2.41-8.19a.67.67 0 0 0-1-.3 169.51 169.51 0 0 1-17 10.43.67.67 0 0 0-.29.98z" fill="#263238"/><path d="M137.26 180c1.36 8.85-3.91 15.71 4.2 19.79-1.35 6.73.65 20.17 3.86 25.5 4.51 2.45 26.57-1.17 44.6-6.11-.26-7.7-6.59-22.85-4.83-48.07a9.87 9.87 0 0 0-10.2-10.54c-1.56 0-3.22.15-4.9.3a123.85 123.85 0 0 0-17.57 2.4c-1.87.44-3.8.94-5.63 1.46a13.56 13.56 0 0 0-9.53 15.27z" fill="#263238"/><path d="M150 173.27s5.65-2.06 8.61 3c4.93-2.77 11.86-14.48 11.37-15.37-8.25 2.27-19.98 12.37-19.98 12.37z" fill="#fff"/><path d="M150 173.27s-4.29-.51-5.5 3.29c0-7.5 5.06-12.22 7.27-13.1-.77 1.96-1.77 9.81-1.77 9.81z" fill="#fff"/><path d="M167.82 141.05c-.63 5.85-.73 15.25 2.17 19.86 0 0-11 7.53-20 12.36-2.83-6.55 1.77-9.81 1.77-9.81 4.29-1.64 4.25-7.13 3.67-11.33z" fill="#ffc3bd"/><path d="M155.45 152.13l7-6.3a6.89 6.89 0 0 1-.22 3.53 14.84 14.84 0 0 1-6.58 7.75 23.48 23.48 0 0 0-.2-4.98z" opacity=".2"/><path d="M170.08 130.18c-1 9.5-1.15 13.53-6.05 18.23-7.38 7.07-18.61 3.83-20.46-5.75-1.67-8.63.16-22.71 9.44-26.14s17.99 4.17 17.07 13.66z" fill="#ffc3bd"/><path d="M168 137.13a7.75 7.75 0 0 1-.34-10.85c2.5-2.53 6 2.71 6 2.71z" fill="#263238"/><path d="M156.41 132.81c0 .78-.47 1.39-1 1.37s-.89-.67-.86-1.44.47-1.39 1-1.37.89.63.86 1.44z" fill="#263238"/><path d="M146.87 132.58c0 .77-.46 1.38-1 1.36s-.89-.66-.86-1.44.46-1.38 1-1.36.89.66.86 1.44z" fill="#263238"/><path d="M146.23 131.19l-1.84-.61s.9 1.49 1.84.61z" fill="#263238"/><path d="M149.22 132.88a20.74 20.74 0 0 1-3 4.84 3.34 3.34 0 0 0 2.74.62z" fill="#ed847e"/><path d="M153.35 141.38a6.94 6.94 0 0 1-1.31.06.23.23 0 0 1-.22-.23.23.23 0 0 1 .24-.22 6.17 6.17 0 0 0 5.1-2.2.22.22 0 0 1 .31-.06.23.23 0 0 1 .06.32 6.36 6.36 0 0 1-4.18 2.33z" fill="#263238"/><path d="M171.66 138.14a6.1 6.1 0 0 1-3.84 3.26c-2.13.53-3.12-1.81-2.46-4.15.59-2.11 2.42-4.92 4.52-4.41s2.81 3.25 1.78 5.3z" fill="#ffc3bd"/><path d="M165.16 116.67a55.16 55.16 0 0 1-22.16 7.91c0-6.83 13.36-14.5 22.16-7.91z" fill="#263238"/><path d="M160 117.5c-1.55 6 14 17 11 27.58 5.08-7.91 1.42-25.71 1.42-25.71s-13.1-8.29-12.42-1.87z" fill="#263238"/><path d="M158.4 127.71a.43.43 0 0 1-.3-.19 3.64 3.64 0 0 0-2.84-1.67.44.44 0 0 1-.46-.44.45.45 0 0 1 .45-.47 4.51 4.51 0 0 1 3.6 2.07.45.45 0 0 1-.12.63.44.44 0 0 1-.33.07z" fill="#263238"/><path d="M142.65 127.38a.49.49 0 0 1-.31-.14.45.45 0 0 1 0-.64 4.53 4.53 0 0 1 3.93-1.36.46.46 0 0 1 .35.54.45.45 0 0 1-.54.35 3.63 3.63 0 0 0-3.1 1.11.47.47 0 0 1-.33.14z" fill="#263238"/><path d="M155.77 131.42l-1.84-.6s.89 1.49 1.84.6z" fill="#263238"/><path d="M184.85 176a120 120 0 0 0 .53 16c-5-5.28-11.28-15.25-11.69-20.25z" opacity=".2"/><path d="M217.5 157.22l1.09-6.35 9.87 3.81s-2.29 5.91-6.5 8.52l-1.17-.74a6.92 6.92 0 0 1-3.29-5.24z" fill="#ffc3bd"/><path d="M224.75 147.33l3.25 1.77a3.06 3.06 0 0 1 1.24 4.13l-.77 1.45-9.87-3.81 2.35-2.81a3.07 3.07 0 0 1 3.8-.73z" fill="#ffc3bd"/><path d="M183.09 164.47l1.26 1.3 1.37 1.39c.93.91 1.86 1.84 2.82 2.72a86.37 86.37 0 0 0 5.83 5 43.76 43.76 0 0 0 5.9 3.9 16.08 16.08 0 0 0 5.09 1.82l-2.69.5c-.66.32-.62.46-.48.35a4.23 4.23 0 0 0 .74-.63 19.56 19.56 0 0 0 2-2.45c1.36-1.93 2.74-4.12 4-6.39s2.6-4.6 3.89-7l3.85-7.12v-.06a4.05 4.05 0 0 1 7.57 2.57c-.46 2.88-1.09 5.6-1.79 8.37S221 174.25 220 177a69.52 69.52 0 0 1-3.48 8.29 37.14 37.14 0 0 1-2.63 4.36 18.17 18.17 0 0 1-2.06 2.4 12.47 12.47 0 0 1-3.89 2.63 6.15 6.15 0 0 1-2.25.49h-.44a27.73 27.73 0 0 1-11.47-2.41 49.22 49.22 0 0 1-4.66-2.29q-2.17-1.28-4.19-2.65a72.08 72.08 0 0 1-7.46-6c-1.15-1.06-2.29-2.13-3.38-3.26-.54-.56-1.09-1.12-1.62-1.71s-1-1.13-1.65-1.88a8.08 8.08 0 0 1 12-10.84z" fill="#ffc3bd"/><path d="M175.33 160.62c7.33.22 14.62 9 14.62 9s-2.82 11.65-10.85 16.67c-4.52-3.52-8.35-6.34-8.35-6.34-6.39-9.37-4.26-15.59 4.58-19.33z" fill="#263238"/><path d="M143.86 224.64c.54 3.13 1.19 5.59 1.4 6.34a.61.61 0 0 0 .29.38c1.07.59 5.95 3 14.91 2.47 10-.54 24.67-6 32.28-11.81a.64.64 0 0 0 .2-.75 28.42 28.42 0 0 0-2.05-3.76.64.64 0 0 0-.72-.26c-3.28 1-23.93 6.91-45.68 6.65a.64.64 0 0 0-.63.74z" fill="#c0a5b4"/><path d="M143.86 224.64c.54 3.13 1.19 5.59 1.4 6.34a.61.61 0 0 0 .29.38c1.07.59 5.95 3 14.91 2.47 10-.54 24.67-6 32.28-11.81a.64.64 0 0 0 .2-.75 28.42 28.42 0 0 0-2.05-3.76.64.64 0 0 0-.72-.26c-3.28 1-23.93 6.91-45.68 6.65a.64.64 0 0 0-.63.74z" fill="#fff" opacity=".3"/></g><g><path d="M344.27 386.41H212.61a17.65 17.65 0 0 1-17.77-18.88l16-273.65a20.34 20.34 0 0 1 20-18.88h131.69a17.65 17.65 0 0 1 17.77 18.88l-16.05 273.65a20.34 20.34 0 0 1-19.98 18.88z" fill="#c0a5b4"/><path d="M344.27 386.41H212.61a17.65 17.65 0 0 1-17.77-18.88l16-273.65a20.34 20.34 0 0 1 20-18.88h131.69a17.65 17.65 0 0 1 17.77 18.88l-16.05 273.65a20.34 20.34 0 0 1-19.98 18.88z" fill="#fff" opacity=".8"/><path d="M343.49 380.93h-128A12.4 12.4 0 0 1 203 367.67l16-272.46a14.3 14.3 0 0 1 14-13.27h128a12.41 12.41 0 0 1 12.49 13.27l-16 272.46a14.29 14.29 0 0 1-14 13.26z" fill="#c0a5b4"/><path d="M342.11 379.47h-128a12.41 12.41 0 0 1-12.49-13.27l16-272.46a14.3 14.3 0 0 1 14-13.27h128a12.41 12.41 0 0 1 12.49 13.27l-16 272.46a14.3 14.3 0 0 1-14 13.27z" fill="#fff"/><path d="M338.37 369.34H219a7.67 7.67 0 0 1-7.72-8.2L218 247.49a8.83 8.83 0 0 1 8.68-8.2H346a7.67 7.67 0 0 1 7.72 8.2l-6.67 113.65a8.83 8.83 0 0 1-8.68 8.2z" fill="#c0a5b4" opacity=".1"/><path d="M311.86 100.68h-34.79a2.74 2.74 0 0 1-2.76-2.93 3.16 3.16 0 0 1 3.11-2.94h34.78a2.74 2.74 0 0 1 2.8 2.94 3.15 3.15 0 0 1-3.14 2.93z" fill="#c0a5b4" opacity=".1"/><ellipse cx="290.18" cy="173.79" rx="54.07" ry="50.99" transform="rotate(-44.16 290.177 173.792)" fill="#c0a5b4" opacity=".1"/><path d="M253.4 208.57a46.41 46.41 0 0 1-12.47-35h1a45.45 45.45 0 0 0 12.2 34.25z" fill="#c0a5b4"/><path d="M339.42 174l-1-.06a47.94 47.94 0 0 0-1-13.14l1-.22a48.42 48.42 0 0 1 1 13.42z" fill="#c0a5b4"/><path d="M334.52 152.1a45 45 0 0 0-25.35-23.69l.35-.94a45.89 45.89 0 0 1 25.91 24.23z" fill="#c0a5b4"/><ellipse cx="290.18" cy="173.79" rx="47.12" ry="44.43" transform="rotate(-44.16 290.177 173.792)" fill="#c0a5b4"/><path d="M285.09 180c2.2-.49 3.23-2.37 3.7-4.51.05-.23.09-.45.13-.67v-.2a22.74 22.74 0 0 0 .2-2.69 8.72 8.72 0 0 1-7.86-8.54 25.73 25.73 0 0 1 2.74-12.24 2.81 2.81 0 0 0-1.35.56.33.33 0 0 1-.27.06.36.36 0 0 1-.22-.13.36.36 0 0 1 .07-.49 3.56 3.56 0 0 1 2.16-.72c.15-.24.29-.49.44-.72h-1.86c.66-4.62 9.55-8.5 15.61-5 2.7.54 7.16 4.4 7.16 4.4a56.89 56.89 0 0 1-.21 7.37c-.4 4.18-1.39 9.09-3.8 11.83a8.7 8.7 0 0 0 .64-4.45 4.66 4.66 0 0 1-2.08 1.19 12.45 12.45 0 0 1-1 1.76c-.94 4.29-1.61 10-.18 13.29 1.29.08 2.54.2 3.73.33l.29.05a21.34 21.34 0 0 0 2.26-1.53c9-7-.55-15.22 1.7-22.75s.35-10.39-5.8-10.63c2.55-4.07-13.65-10.57-20.77 2.06-6.45 11.45-8.53 17.17-6.21 26.12a11.75 11.75 0 0 0 5.51 6.89 10.54 10.54 0 0 1 1.38-.28c1.27-.12 2.59-.26 3.89-.36z" fill="#263238"/><path d="M271.1 197.6a22 22 0 0 1-1-2c-.68 2-1.35 4-2 6-.62 1.8-1.21 3.6-1.83 5.32l-.93 2.43-.4 1c-.14.27 0 .11 0 .19a10.44 10.44 0 0 1-1.41 1.36c-.11.11-.25.21-.37.31a42.5 42.5 0 0 0 8.87 4.57c.07-4.57.63-9.32 1.23-10.59-3.6-2.5-3.06-5.19-2.16-8.59z" fill="#ffc3bd"/><path d="M274.6 184.11l-.25.35c.08-.12.17-.23.26-.34z" fill="#263238"/><path d="M272.29 190.81a10.66 10.66 0 0 1 1.91-6.16 48.27 48.27 0 0 0-4.7 9.6s.18.53.56 1.36a22 22 0 0 0 1 2 25.8 25.8 0 0 0 1.23-6.8z" fill="#263238"/><path d="M307.15 205.32a42.1 42.1 0 0 1-3.15-5.47c-.3.16-.61.32-.93.46-3-3.17-5.56-5.73-5.56-5.73-3.74-7.8-1.43-12.24 5.66-14.05a9.32 9.32 0 0 1 3.1 1.25 7.38 7.38 0 0 0-3.14-1.26l-.29-.05c-1.19-.13-2.44-.25-3.73-.33.28.73-6.14 10-10.17 11.47-1.65-4.16-6.28-4.44-6.28-4.44s-4.32-.89-5.66 1.83c.88-5.62 6.29-8.58 8.09-9-1.3.11-2.62.25-3.89.41a10.54 10.54 0 0 0-1.38.28 10.05 10.05 0 0 0-5.21 3.44c-.09.11-.18.22-.26.34l-.15.19a10.66 10.66 0 0 0-1.91 6.16 25.8 25.8 0 0 1-1.19 6.79c-.9 3.36-1.44 6.09 2.09 8.59-.6 1.27-1.16 6-1.23 10.59a44.26 44.26 0 0 0 15.53 2.76 47.32 47.32 0 0 0 19.66-4.31 103.13 103.13 0 0 1 .09-11.17c-.03.4-.07.84-.09 1.25z" fill="#263238"/><path d="M282.66 187.17s4.63.28 6.28 4.44c4-1.52 10.45-10.74 10.17-11.47 0 0-9.11 4.42-16.45 7.03z" fill="#fff"/><path d="M285.11 180c-1.8.43-7.21 3.39-8.09 9 1.34-2.72 5.66-1.83 5.66-1.83-1.4-5.26 2.43-7.17 2.43-7.17z" fill="#fff"/><path d="M288.94 174.81v-.2z" fill="#ffc3bd"/><path d="M299.29 166.85a12.18 12.18 0 0 1-3.24 3.2 10.74 10.74 0 0 1-1.7 1 11.51 11.51 0 0 1-5.57 4.63v-.17c-.47 2.14-1.5 4-3.7 4.51 0 0-3.83 1.92-2.45 7.18 7.35-2.61 16.45-7 16.45-7-1.4-3.34-.73-9.06.21-13.35z" fill="#ffc3bd"/><path d="M288.81 175.48c.05-.23.09-.45.13-.67-.04.19-.08.44-.13.67z" fill="#263238"/><path d="M288.81 175.48c.05-.23.09-.45.13-.67-.04.19-.08.44-.13.67z" opacity=".2"/><path d="M289.17 171.92a22.74 22.74 0 0 1-.2 2.69 20.93 20.93 0 0 0 .2-2.69z" fill="#263238"/><path d="M289.17 171.92a22.74 22.74 0 0 1-.2 2.69 20.93 20.93 0 0 0 .2-2.69z" opacity=".2"/><path d="M294.35 171a9.69 9.69 0 0 1-5.18.9 20.93 20.93 0 0 1-.2 2.69v.2c0 .22-.08.44-.13.67v.17a11.51 11.51 0 0 0 5.51-4.63z" fill="#ffc3bd"/><path d="M294.35 171a9.69 9.69 0 0 1-5.18.9 20.93 20.93 0 0 1-.2 2.69v.2c0 .22-.08.44-.13.67v.17a11.51 11.51 0 0 0 5.51-4.63z" opacity=".2"/><path d="M294.35 171a10.74 10.74 0 0 0 1.7-1 12.18 12.18 0 0 0 3.24-3.2 12.45 12.45 0 0 0 1-1.76c-.19 0-.38.1-.56.12-1.67.15-2.14-1.73-1.38-3.41a6.58 6.58 0 0 1 1-1.57 6.05 6.05 0 0 1 .3-4.32c-1.52-3.12-3.13-6-3.28-8.09a42.67 42.67 0 0 1-11.54 1.89c-.15.23-.29.48-.44.72a3.32 3.32 0 0 1 1 .15.34.34 0 0 1 .2.44.35.35 0 0 1-.44.21 2.52 2.52 0 0 0-1.11-.08 25.73 25.73 0 0 0-2.67 12.23 8.72 8.72 0 0 0 7.86 8.54 9.69 9.69 0 0 0 5.12-.87zm-2.23-19.64a3.42 3.42 0 0 1 2.48 2 .36.36 0 0 1-.16.47.34.34 0 0 1-.26 0 .3.3 0 0 1-.2-.18 2.74 2.74 0 0 0-2-1.57.36.36 0 0 1-.3-.39.35.35 0 0 1 .44-.31zm-.35 4.94a1 1 0 0 1 .35 1.11c-.11.58-.51 1-.89.91s-.6-.6-.49-1.18a1.35 1.35 0 0 1 .43-.76 1.51 1.51 0 0 1-.69-.76zm-8.2-.42a1.34 1.34 0 0 1 .42-.75 1.57 1.57 0 0 1-.68-.77l1.31.67a1.05 1.05 0 0 1 .35 1.11c-.12.58-.51 1-.89.92s-.62-.58-.51-1.16zm2.32 4.86a2.55 2.55 0 0 1-2-.79 16.08 16.08 0 0 0 2.78-3.3zm1.93 2.68a.18.18 0 0 1-.13-.21.17.17 0 0 1 .2-.13A4.7 4.7 0 0 0 292 162a.17.17 0 1 1 .25.24 4.85 4.85 0 0 1-3.42 1.28 7.22 7.22 0 0 1-1.01-.08z" fill="#ffc3bd"/><path fill="#263238" d="M305.51 156.52z"/><path d="M301 159c-.42-1-.9-2.07-1.39-3.07a6.05 6.05 0 0 0-.3 4.32A4.05 4.05 0 0 1 301 159z" fill="#263238"/><path d="M291.15 156.41a1.35 1.35 0 0 0-.43.76c-.11.58.11 1.11.49 1.18s.78-.33.89-.91a1 1 0 0 0-.35-1.11.61.61 0 0 1-.6.08z" fill="#263238"/><path d="M285 156.17a1.05 1.05 0 0 0-.35-1.11.66.66 0 0 1-.61.09 1.34 1.34 0 0 0-.42.75c-.11.58.11 1.11.49 1.19s.72-.34.89-.92z" fill="#263238"/><path d="M284.6 155.06l-1.31-.67a1.57 1.57 0 0 0 .68.77.66.66 0 0 0 .63-.1z" fill="#263238"/><path d="M283.9 160a2.55 2.55 0 0 0 2 .79l.79-4.09a16.08 16.08 0 0 1-2.79 3.3z" fill="#ed847e"/><path d="M292.23 162a.18.18 0 0 0-.25 0 4.7 4.7 0 0 1-4.09 1.08.17.17 0 0 0-.2.13.18.18 0 0 0 .13.21 7.22 7.22 0 0 0 1 .1 4.85 4.85 0 0 0 3.42-1.28.18.18 0 0 0-.01-.24z" fill="#263238"/><path d="M301 159a4.05 4.05 0 0 0-1.69 1.25 6.58 6.58 0 0 0-1 1.57c-.76 1.68-.29 3.56 1.38 3.41.18 0 .37-.08.56-.12a4.66 4.66 0 0 0 2.08-1.19A18.12 18.12 0 0 0 301 159z" fill="#ffc3bd"/><path d="M296.56 146.32c.06-1.44.88-1.79 2-1.57-6.06-3.54-14.95.34-15.61 5h1.86a42.67 42.67 0 0 0 11.54-1.89 3.19 3.19 0 0 1 .21-1.54z" fill="#263238"/><path d="M296.56 146.32a3.19 3.19 0 0 0-.21 1.5c.15 2.12 1.76 5 3.28 8.09.49 1 1 2 1.39 3.07a18.12 18.12 0 0 1 1.33 4.92 8.7 8.7 0 0 1-.64 4.45c2.41-2.74 3.4-7.65 3.8-11.83a56.89 56.89 0 0 0 .21-7.37s-4.46-3.86-7.16-4.4c-1.12-.22-1.94.13-2 1.57z" fill="#263238"/><path d="M292 152.07a2.74 2.74 0 0 1 2 1.57.3.3 0 0 0 .2.18.34.34 0 0 0 .26 0 .36.36 0 0 0 .16-.47 3.42 3.42 0 0 0-2.48-2 .35.35 0 0 0-.39.3.36.36 0 0 0 .25.42z" fill="#263238"/><path d="M285.09 151.23a.35.35 0 0 0 .44-.21.34.34 0 0 0-.2-.44 3.32 3.32 0 0 0-1-.15 3.56 3.56 0 0 0-2.16.72.36.36 0 0 0-.07.49.36.36 0 0 0 .22.13.33.33 0 0 0 .27-.06 2.81 2.81 0 0 1 1.35-.56 2.52 2.52 0 0 1 1.15.08z" fill="#263238"/><path d="M291.15 156.41a.61.61 0 0 0 .6-.08l-1.31-.67a1.51 1.51 0 0 0 .71.75z" fill="#263238"/><path d="M307.15 205.32c0-.41.06-.85.08-1.27-.56-.89-1.13-1.79-1.72-2.68l-1.15-1.71-.36.19a42.1 42.1 0 0 0 3.15 5.47z" fill="#263238"/><path d="M307.15 205.32c0-.41.06-.85.08-1.27-.56-.89-1.13-1.79-1.72-2.68l-1.15-1.71-.36.19a42.1 42.1 0 0 0 3.15 5.47z" opacity=".2"/><path d="M310.12 213.6v.16a49.61 49.61 0 0 0 10.92-8 43.2 43.2 0 0 0-1.92-4.73 66.63 66.63 0 0 0-3.23-6.11c-1-1.72-2.06-3.36-3.15-5-1 2.09-3.84 7.12-8.35 9.71l1.15 1.71c.59.89 1.16 1.79 1.72 2.68.49.78 1 1.57 1.41 2.35.77 1.35 1.49 2.71 2 4l-.1.68c-.12.83-.27 1.68-.45 2.55z" fill="#ffc3bd"/><path d="M297.51 194.58s2.56 2.56 5.56 5.73c.32-.14.63-.3.93-.46l.36-.19c4.51-2.59 7.33-7.62 8.35-9.71.29-.59.44-.95.44-.95s-2.9-4.8-6.88-7.22a9.32 9.32 0 0 0-3.1-1.25c-7.09 1.81-9.4 6.25-5.66 14.05z" fill="#263238"/><path d="M345.46 94.27h14.09a1.54 1.54 0 0 0 1.51-1.43 1.33 1.33 0 0 0-1.34-1.42h-14.1a1.54 1.54 0 0 0-1.51 1.42 1.33 1.33 0 0 0 1.35 1.43z" fill="#c0a5b4"/><path d="M345.17 99.18h14.09a1.54 1.54 0 0 0 1.51-1.43 1.33 1.33 0 0 0-1.34-1.43h-14.09a1.54 1.54 0 0 0-1.52 1.43 1.35 1.35 0 0 0 1.35 1.43z" fill="#c0a5b4"/><path d="M231.18 99.18h14.09a1.55 1.55 0 0 0 1.52-1.43 1.34 1.34 0 0 0-1.35-1.43h-14.09a1.53 1.53 0 0 0-1.51 1.43 1.34 1.34 0 0 0 1.34 1.43z" fill="#c0a5b4"/><path d="M344.88 104.08H359a1.54 1.54 0 0 0 1.52-1.43 1.35 1.35 0 0 0-1.35-1.43h-14.12a1.55 1.55 0 0 0-1.52 1.43 1.34 1.34 0 0 0 1.35 1.43z" fill="#c0a5b4"/><path d="M326.36 283.49h-85.24a11.54 11.54 0 0 1-11.62-12.34 13.3 13.3 0 0 1 13.07-12.34h85.24a11.54 11.54 0 0 1 11.62 12.34 13.3 13.3 0 0 1-13.07 12.34z" fill="#fff"/><path d="M324.42 316.66h-85.25a11.56 11.56 0 0 1-11.62-12.35A13.3 13.3 0 0 1 240.62 292h85.25a11.54 11.54 0 0 1 11.62 12.34 13.31 13.31 0 0 1-13.07 12.32z" fill="#fff"/><path d="M322.47 349.82h-85.24a11.54 11.54 0 0 1-11.62-12.34 13.31 13.31 0 0 1 13.07-12.35h85.24a11.55 11.55 0 0 1 11.62 12.35 13.3 13.3 0 0 1-13.07 12.34z" fill="#fff"/><ellipse cx="243.44" cy="271.15" rx="6.55" ry="6.17" transform="rotate(-44.16 243.437 271.144)" fill="#c0a5b4"/><path d="M242.69 298.3l.84 3.17a.82.82 0 0 0 .8.6h3.33a.86.86 0 0 1 .43 1.6l-2.81 2a.92.92 0 0 0-.38 1l.84 3.17a.92.92 0 0 1-1.41 1l-2.58-2a.87.87 0 0 0-1 0l-2.81 2a.84.84 0 0 1-1.29-1l1.21-3.17a.84.84 0 0 0-.26-1l-2.58-2a.91.91 0 0 1 .61-1.6h3.33a.93.93 0 0 0 .87-.6l1.17-3.17a.88.88 0 0 1 1.69 0z" fill="#c0a5b4"/><path d="M245 334.12l-.53 8.9a1.48 1.48 0 0 1-1.47 1.38h-7.79A1.29 1.29 0 0 1 234 343l.65-11.08a1.48 1.48 0 0 1 1.46-1.39h5.6z" fill="#c0a5b4"/><path d="M241.66 330.55l3.37 3.57h-2.19a1.29 1.29 0 0 1-1.3-1.38l.12-2.19m-.89-2.45l-.14 2.39-.13 2.19a2.39 2.39 0 0 0 .63 1.75 2.34 2.34 0 0 0 1.71.73h4.58l-1.64-1.75-3.36-3.57-1.65-1.74z" fill="#fff"/><path d="M323.5 269.84h-63.79a1.88 1.88 0 0 1-1.89-2 2.17 2.17 0 0 1 2.13-2h63.78a1.88 1.88 0 0 1 1.89 2 2.16 2.16 0 0 1-2.12 2z" fill="#c0a5b4" opacity=".2"/><path d="M311.41 276.48h-52.08a1.89 1.89 0 0 1-1.9-2 2.17 2.17 0 0 1 2.13-2h52.08a1.88 1.88 0 0 1 1.9 2 2.18 2.18 0 0 1-2.13 2z" fill="#c0a5b4" opacity=".2"/><path d="M321.4 305.62h-17.6a2.16 2.16 0 0 0-2.13 2 1.88 1.88 0 0 0 1.89 2h17.6a2.16 2.16 0 0 0 2.13-2 1.88 1.88 0 0 0-1.89-2z" fill="#c0a5b4" opacity=".2"/><path d="M293.51 305.62h-35.89a2.16 2.16 0 0 0-2.13 2 1.87 1.87 0 0 0 1.89 2h35.9a2.17 2.17 0 0 0 2.13-2 1.88 1.88 0 0 0-1.9-2z" fill="#c0a5b4" opacity=".2"/><path d="M310.09 299H258a2.16 2.16 0 0 0-2.13 2 1.88 1.88 0 0 0 1.89 2h52.08a2.17 2.17 0 0 0 2.13-2 1.88 1.88 0 0 0-1.88-2z" fill="#c0a5b4" opacity=".2"/><path d="M319.45 338.78h-63.78a2.18 2.18 0 0 0-2.13 2 1.88 1.88 0 0 0 1.9 2h63.78a2.16 2.16 0 0 0 2.12-2 1.88 1.88 0 0 0-1.89-2z" fill="#c0a5b4" opacity=".2"/><path d="M308.14 332.15h-52.08a2.17 2.17 0 0 0-2.13 2 1.88 1.88 0 0 0 1.89 2h52.09a2.16 2.16 0 0 0 2.12-2 1.88 1.88 0 0 0-1.89-2z" fill="#c0a5b4" opacity=".2"/></g></svg>