<?xml version="1.0" encoding="iso-8859-1"?>
<!DOCTYPE svg PUBLIC "-//W3C//DTD SVG 1.1//EN" "http://www.w3.org/Graphics/SVG/1.1/DTD/svg11.dtd">
<svg 
 version="1.1" xmlns="http://www.w3.org/2000/svg" xmlns:xlink="http://www.w3.org/1999/xlink" x="0px" y="0px" width="512px"
	 height="512px" viewBox="0 0 512 512" enable-background="new 0 0 512 512" xml:space="preserve"
><g id="e6c6b53d3c8160b22dad35a0f70b5b4a"><g></g><g fill="#ffffff"><path display="inline" d="M468.917,381.089c0,11.76-9.531,21.291-21.292,21.291H149.541c-11.758,0-21.291-9.531-21.291-21.291
		V43.083H64.375c-11.759,0-21.292-9.534-21.292-21.292S52.616,0.5,64.375,0.5h85.166c11.759,0,21.292,9.533,21.292,21.292v338.005
		h276.792C459.386,359.797,468.917,369.328,468.917,381.089z M423.672,192.125H210.755v127.75h212.917V192.125z M338.505,64.375
		h-127.75v106.458h127.75V64.375z M210.755,426.333c-23.521,0-42.583,19.063-42.583,42.584s19.063,42.583,42.583,42.583
		s42.583-19.063,42.583-42.583S234.275,426.333,210.755,426.333z M381.089,426.333c-23.521,0-42.584,19.063-42.584,42.584
		s19.063,42.583,42.584,42.583s42.583-19.063,42.583-42.583S404.609,426.333,381.089,426.333z"></path></g></g></svg>